<svg 
 xmlns="http://www.w3.org/2000/svg"
 xmlns:xlink="http://www.w3.org/1999/xlink"
 width="17px" height="19px">
<path fill-rule="evenodd"  stroke-width="1px" stroke="rgb(61, 61, 61)" fill-opacity="0" fill="rgb(26, 26, 26)"
 d="M10.417,9.371 C10.933,8.863 11.200,8.229 11.217,7.467 L10.125,7.467 C10.108,7.924 9.947,8.305 9.643,8.609 C9.338,8.914 8.957,9.066 8.500,9.066 C8.043,9.066 7.662,8.914 7.357,8.609 C7.053,8.305 6.892,7.924 6.875,7.467 L5.783,7.467 C5.800,8.229 6.066,8.863 6.583,9.371 C7.099,9.879 7.738,10.142 8.500,10.158 C9.262,10.142 9.900,9.879 10.417,9.371 ZM7.357,5.232 C7.053,5.537 6.892,5.918 6.875,6.375 L10.125,6.375 C10.108,5.918 9.947,5.537 9.643,5.232 C9.338,4.928 8.957,4.767 8.500,4.750 C8.043,4.767 7.662,4.928 7.357,5.232 ZM13.058,6.680 C13.269,6.883 13.375,7.145 13.375,7.467 L13.375,13.967 C13.375,14.271 13.269,14.525 13.058,14.729 C12.846,14.932 12.588,15.033 12.283,15.033 L4.717,15.033 C4.412,15.033 4.154,14.932 3.942,14.729 C3.731,14.525 3.625,14.271 3.625,13.967 L3.625,7.467 C3.625,7.145 3.727,6.883 3.930,6.680 C4.133,6.477 4.395,6.375 4.717,6.375 L5.783,6.375 C5.800,5.613 6.066,4.975 6.583,4.458 C7.099,3.942 7.738,3.675 8.500,3.658 C9.262,3.675 9.900,3.942 10.417,4.458 C10.933,4.975 11.200,5.613 11.217,6.375 L12.283,6.375 C12.588,6.375 12.846,6.477 13.058,6.680 Z"/>
</svg>