<svg 
 xmlns="http://www.w3.org/2000/svg"
 xmlns:xlink="http://www.w3.org/1999/xlink"
 width="18px" height="15px">
<path fill-rule="evenodd"  fill="rgb(26, 26, 26)"
 d="M17.320,3.125 L17.320,2.500 C17.320,2.031 17.164,1.641 16.852,1.328 C16.539,1.016 16.148,0.847 15.680,0.820 L2.320,0.820 C1.852,0.847 1.461,1.016 1.148,1.328 C0.836,1.641 0.680,2.031 0.680,2.500 L0.680,3.125 L9.000,8.320 L17.320,3.125 ZM17.320,5.078 L15.680,6.133 L15.680,12.500 L2.320,12.500 L2.320,6.133 L0.680,5.078 L0.680,12.500 C0.680,12.969 0.836,13.359 1.148,13.672 C1.461,13.984 1.852,14.154 2.320,14.180 L15.680,14.180 C16.148,14.154 16.539,13.984 16.852,13.672 C17.164,13.359 17.320,12.969 17.320,12.500 L17.320,5.078 Z"/>
</svg>