<svg 
 xmlns="http://www.w3.org/2000/svg"
 xmlns:xlink="http://www.w3.org/1999/xlink"
 width="17px" height="18px">
<path fill-rule="evenodd"  stroke-width="1px" stroke="rgb(61, 61, 61)" fill-opacity="0" fill="rgb(26, 26, 26)"
 d="M6.742,4.598 C6.273,5.066 6.039,5.657 6.039,6.370 C6.039,7.083 6.273,7.674 6.742,8.143 C7.211,8.611 7.797,8.846 8.500,8.846 C9.203,8.846 9.789,8.611 10.258,8.143 C10.727,7.674 10.961,7.083 10.961,6.370 C10.961,5.657 10.727,5.066 10.258,4.598 C9.789,4.129 9.203,3.885 8.500,3.865 C7.797,3.885 7.211,4.129 6.742,4.598 ZM4.955,10.867 C4.018,11.336 3.529,11.922 3.490,12.625 L3.490,13.885 L13.510,13.885 L13.510,12.625 C13.470,11.922 12.982,11.336 12.045,10.867 C11.107,10.398 9.925,10.154 8.500,10.135 C7.074,10.154 5.893,10.398 4.955,10.867 Z"/>
</svg>