<svg 
 xmlns="http://www.w3.org/2000/svg"
 xmlns:xlink="http://www.w3.org/1999/xlink"
 width="12px" height="12px">
<path fill-rule="evenodd"  fill="rgb(26, 26, 26)"
 d="M8.086,0.920 L2.570,11.378 L3.816,11.378 L9.318,0.920 L8.086,0.920 ZM0.708,1.823 C0.297,2.294 0.092,2.964 0.092,3.832 C0.092,4.709 0.295,5.384 0.701,5.855 C1.107,6.326 1.693,6.562 2.458,6.562 C3.205,6.562 3.779,6.322 4.180,5.841 C4.581,5.360 4.782,4.667 4.782,3.762 C4.782,2.903 4.581,2.248 4.180,1.795 C3.779,1.342 3.200,1.116 2.444,1.116 C1.697,1.116 1.119,1.352 0.708,1.823 ZM2.941,2.285 C3.076,2.383 3.170,2.528 3.221,2.719 C3.272,2.910 3.305,3.078 3.319,3.223 C3.333,3.368 3.340,3.547 3.340,3.762 C3.340,4.397 3.268,4.854 3.123,5.134 C2.978,5.414 2.743,5.554 2.416,5.554 C2.099,5.554 1.870,5.426 1.730,5.169 C1.590,4.912 1.520,4.490 1.520,3.902 C1.520,2.726 1.823,2.138 2.430,2.138 C2.635,2.138 2.806,2.187 2.941,2.285 ZM7.904,6.457 C7.493,6.928 7.288,7.598 7.288,8.466 C7.288,9.343 7.491,10.018 7.897,10.489 C8.303,10.960 8.889,11.196 9.654,11.196 C10.401,11.196 10.975,10.956 11.376,10.475 C11.777,9.994 11.978,9.301 11.978,8.396 C11.978,7.537 11.777,6.882 11.376,6.429 C10.975,5.976 10.396,5.750 9.640,5.750 C8.893,5.750 8.315,5.986 7.904,6.457 ZM10.137,6.919 C10.272,7.017 10.366,7.162 10.417,7.353 C10.468,7.544 10.501,7.712 10.515,7.857 C10.529,8.002 10.536,8.181 10.536,8.396 C10.536,9.031 10.464,9.488 10.319,9.768 C10.174,10.048 9.939,10.188 9.612,10.188 C9.295,10.188 9.066,10.060 8.926,9.803 C8.786,9.546 8.716,9.124 8.716,8.536 C8.716,7.360 9.019,6.772 9.626,6.772 C9.831,6.772 10.002,6.821 10.137,6.919 Z"/>
</svg>