<svg 
 xmlns="http://www.w3.org/2000/svg"
 xmlns:xlink="http://www.w3.org/1999/xlink"
 width="19px" height="17px">
<path fill-rule="evenodd"  stroke-width="1px" stroke="rgb(61, 61, 61)" fill-opacity="0" fill="rgb(26, 26, 26)"
 d="M12.750,5.908 L6.250,5.908 L6.250,3.750 L12.750,3.750 L12.750,5.908 ZM13.664,8.473 C13.766,8.371 13.816,8.244 13.816,8.092 C13.816,7.939 13.766,7.812 13.664,7.711 C13.563,7.609 13.436,7.559 13.283,7.559 C13.131,7.559 13.004,7.609 12.902,7.711 C12.801,7.812 12.750,7.939 12.750,8.092 C12.750,8.244 12.801,8.371 12.902,8.473 C13.004,8.574 13.131,8.625 13.283,8.625 C13.436,8.625 13.563,8.574 13.664,8.473 ZM11.658,9.717 L7.342,9.717 L7.342,12.408 L11.658,12.408 L11.658,9.717 ZM14.451,6.924 C14.756,7.229 14.908,7.618 14.908,8.092 L14.908,11.342 L12.750,11.342 L12.750,13.500 L6.250,13.500 L6.250,11.342 L4.092,11.342 L4.092,8.092 C4.092,7.618 4.244,7.229 4.549,6.924 C4.854,6.619 5.243,6.467 5.717,6.467 L13.283,6.467 C13.757,6.467 14.146,6.619 14.451,6.924 Z"/>
</svg>