<svg 
 xmlns="http://www.w3.org/2000/svg"
 xmlns:xlink="http://www.w3.org/1999/xlink"
 width="8px" height="11px">
<path fill-rule="evenodd"  fill="rgb(26, 26, 26)"
 d="M2.478,4.252 C2.515,3.104 3.001,2.530 3.934,2.530 C4.298,2.530 4.590,2.633 4.809,2.838 C5.028,3.043 5.138,3.314 5.138,3.650 C5.138,3.818 5.115,3.972 5.068,4.112 C5.021,4.252 4.942,4.387 4.830,4.518 C4.718,4.649 4.625,4.751 4.550,4.826 C4.475,4.901 4.349,5.008 4.172,5.148 C3.995,5.288 3.878,5.381 3.822,5.428 C3.393,5.792 3.124,6.149 3.017,6.499 C2.910,6.849 2.856,7.351 2.856,8.004 L4.718,8.004 C4.718,7.519 4.779,7.166 4.900,6.947 C5.021,6.728 5.287,6.478 5.698,6.198 C6.202,5.853 6.592,5.484 6.867,5.092 C7.142,4.700 7.280,4.233 7.280,3.692 C7.280,2.833 6.977,2.140 6.370,1.613 C5.763,1.086 4.961,0.822 3.962,0.822 C2.870,0.822 2.025,1.125 1.428,1.732 C0.831,2.339 0.499,3.179 0.434,4.252 L2.478,4.252 ZM2.688,8.858 L2.688,11.000 L4.858,11.000 L4.858,8.858 L2.688,8.858 Z"/>
</svg>