<svg 
 xmlns="http://www.w3.org/2000/svg"
 xmlns:xlink="http://www.w3.org/1999/xlink"
 width="16px" height="15px">
<path fill-rule="evenodd"  fill="rgb(26, 26, 26)"
 d="M5.344,4.648 C5.578,4.388 5.643,4.102 5.539,3.789 C5.227,2.852 5.070,1.862 5.070,0.820 C5.070,0.586 4.992,0.391 4.836,0.234 C4.680,0.078 4.484,-0.000 4.250,-0.000 L1.320,-0.000 C1.086,-0.000 0.891,0.078 0.734,0.234 C0.578,0.391 0.500,0.586 0.500,0.820 C0.604,4.831 1.990,8.171 4.660,10.840 C7.329,13.510 10.669,14.896 14.680,15.000 C14.914,15.000 15.109,14.922 15.266,14.766 C15.422,14.609 15.500,14.414 15.500,14.180 L15.500,11.250 C15.500,11.016 15.422,10.820 15.266,10.664 C15.109,10.508 14.914,10.430 14.680,10.430 C13.638,10.430 12.648,10.273 11.711,9.961 C11.398,9.857 11.112,9.922 10.852,10.156 L9.016,11.992 C7.818,11.367 6.756,10.593 5.832,9.668 C4.907,8.744 4.133,7.682 3.508,6.484 L5.344,4.648 Z"/>
</svg>