<svg width="468" height="59" viewBox="0 0 468 59" fill="none" xmlns="http://www.w3.org/2000/svg">
<path d="M18.172 5.6L9.416 17.634C8.50667 18.8807 7.524 19.8193 6.468 20.45C5.412 21.066 4.31933 21.374 3.19 21.374C2.23667 21.374 1.30533 21.1687 0.396 20.758L1.804 17.656C2.25867 17.788 2.69133 17.854 3.102 17.854C4.07 17.854 4.92067 17.414 5.654 16.534L5.742 16.446L2.024 5.6H6.534L8.646 12.97L13.838 5.6H18.172ZM28.6713 17.656H30.3213L29.1773 23.464H25.3053L25.7893 21H18.2653L17.8033 23.464H13.9093L15.0753 17.656H15.3613C16.0947 17.6413 16.696 17.216 17.1653 16.38C17.6493 15.544 18.06 14.4367 18.3973 13.058L19.3653 9.076H30.3873L28.6713 17.656ZM22.0493 13.718C21.7853 14.8327 21.558 15.676 21.3673 16.248C21.1767 16.82 20.898 17.2893 20.5313 17.656H24.5133L25.5473 12.398H22.3573L22.0493 13.718ZM44.9003 14.114C44.9003 14.686 44.8196 15.3387 44.6583 16.072H35.9023C36.0489 17.3627 36.9509 18.008 38.6083 18.008C39.1363 18.008 39.6496 17.9273 40.1483 17.766C40.6469 17.6047 41.0943 17.3627 41.4903 17.04L43.2283 19.658C41.8349 20.6847 40.1409 21.198 38.1463 21.198C36.8849 21.198 35.7703 20.978 34.8023 20.538C33.8489 20.0833 33.1083 19.4527 32.5803 18.646C32.0669 17.8247 31.8103 16.864 31.8103 15.764C31.8103 14.4587 32.1109 13.2853 32.7123 12.244C33.3283 11.188 34.1789 10.3667 35.2643 9.78C36.3643 9.17867 37.6183 8.878 39.0263 8.878C40.2143 8.878 41.2483 9.098 42.1283 9.538C43.0229 9.96333 43.7049 10.572 44.1743 11.364C44.6583 12.156 44.9003 13.0727 44.9003 14.114ZM38.8283 11.848C38.1536 11.848 37.5889 12.0313 37.1343 12.398C36.6796 12.75 36.3496 13.2413 36.1443 13.872H41.0503C41.0649 13.2413 40.8669 12.75 40.4563 12.398C40.0456 12.0313 39.5029 11.848 38.8283 11.848ZM60.0076 9.076L57.6096 21H53.4296L55.1456 12.398H52.1316L51.6696 14.224C51.2442 15.9987 50.8042 17.392 50.3496 18.404C49.8949 19.416 49.3449 20.1493 48.6996 20.604C48.0689 21.0587 47.2769 21.286 46.3236 21.286C45.7516 21.286 45.0622 21.1907 44.2556 21L45.1356 17.59C45.3996 17.6193 45.5756 17.634 45.6636 17.634C46.2649 17.634 46.7342 17.348 47.0716 16.776C47.4236 16.204 47.7462 15.2947 48.0396 14.048L49.2276 9.076H60.0076ZM62.8387 9.076H66.9967L65.6767 15.412L71.9027 9.076H75.8407L73.4427 21H69.2627L70.6047 14.642L64.3787 21H60.4407L62.8387 9.076ZM88.6172 12.398H84.7452L83.0732 21H78.8932L80.5652 12.398H76.7812L77.4632 9.076H89.2992L88.6172 12.398ZM101.49 14.114C101.49 14.686 101.409 15.3387 101.248 16.072H92.4921C92.6388 17.3627 93.5408 18.008 95.1981 18.008C95.7261 18.008 96.2395 17.9273 96.7381 17.766C97.2368 17.6047 97.6841 17.3627 98.0801 17.04L99.8181 19.658C98.4248 20.6847 96.7308 21.198 94.7361 21.198C93.4748 21.198 92.3601 20.978 91.3921 20.538C90.4388 20.0833 89.6981 19.4527 89.1701 18.646C88.6568 17.8247 88.4001 16.864 88.4001 15.764C88.4001 14.4587 88.7008 13.2853 89.3021 12.244C89.9181 11.188 90.7688 10.3667 91.8541 9.78C92.9541 9.17867 94.2081 8.878 95.6161 8.878C96.8041 8.878 97.8381 9.098 98.7181 9.538C99.6128 9.96333 100.295 10.572 100.764 11.364C101.248 12.156 101.49 13.0727 101.49 14.114ZM95.4181 11.848C94.7435 11.848 94.1788 12.0313 93.7241 12.398C93.2695 12.75 92.9395 13.2413 92.7341 13.872H97.6401C97.6548 13.2413 97.4568 12.75 97.0461 12.398C96.6355 12.0313 96.0928 11.848 95.4181 11.848ZM118.423 8.526C117.249 8.71667 116.303 9.054 115.585 9.538C114.866 10.0073 114.323 10.682 113.957 11.562C115.086 10.7993 116.362 10.418 117.785 10.418C119.325 10.418 120.527 10.8213 121.393 11.628C122.273 12.4347 122.713 13.5567 122.713 14.994C122.713 16.226 122.405 17.3187 121.789 18.272C121.173 19.2253 120.3 19.9733 119.171 20.516C118.056 21.044 116.765 21.308 115.299 21.308C113.348 21.308 111.845 20.802 110.789 19.79C109.747 18.778 109.227 17.26 109.227 15.236C109.227 13.5787 109.564 12.046 110.239 10.638C110.913 9.23 111.867 8.05667 113.099 7.118C114.345 6.16467 115.797 5.54133 117.455 5.248L123.549 4.192L123.483 7.69L118.423 8.526ZM116.157 13.476C115.35 13.476 114.683 13.7327 114.155 14.246C113.627 14.7593 113.363 15.3753 113.363 16.094C113.363 16.7687 113.546 17.2893 113.913 17.656C114.294 18.0227 114.807 18.206 115.453 18.206C116.259 18.206 116.912 17.9493 117.411 17.436C117.909 16.908 118.159 16.2553 118.159 15.478C118.159 14.8327 117.975 14.3413 117.609 14.004C117.257 13.652 116.773 13.476 116.157 13.476ZM130.096 21.198C128.835 21.198 127.735 20.978 126.796 20.538C125.858 20.0833 125.132 19.4453 124.618 18.624C124.105 17.8027 123.848 16.8493 123.848 15.764C123.848 14.4587 124.164 13.2853 124.794 12.244C125.425 11.2027 126.298 10.3813 127.412 9.78C128.527 9.17867 129.781 8.878 131.174 8.878C132.436 8.878 133.536 9.10533 134.474 9.56C135.413 10 136.139 10.6307 136.652 11.452C137.166 12.2587 137.422 13.2047 137.422 14.29C137.422 15.5953 137.107 16.776 136.476 17.832C135.846 18.8733 134.973 19.6947 133.858 20.296C132.758 20.8973 131.504 21.198 130.096 21.198ZM130.338 17.832C131.174 17.832 131.856 17.524 132.384 16.908C132.912 16.292 133.176 15.4927 133.176 14.51C133.176 13.806 132.978 13.2487 132.582 12.838C132.186 12.4273 131.636 12.222 130.932 12.222C130.096 12.222 129.414 12.53 128.886 13.146C128.358 13.762 128.094 14.5687 128.094 15.566C128.094 16.27 128.292 16.8273 128.688 17.238C129.084 17.634 129.634 17.832 130.338 17.832ZM152.476 9.076L150.078 21H145.898L147.614 12.398H144.6L144.138 14.224C143.713 15.9987 143.273 17.392 142.818 18.404C142.364 19.416 141.814 20.1493 141.168 20.604C140.538 21.0587 139.746 21.286 138.792 21.286C138.22 21.286 137.531 21.1907 136.724 21L137.604 17.59C137.868 17.6193 138.044 17.634 138.132 17.634C138.734 17.634 139.203 17.348 139.54 16.776C139.892 16.204 140.215 15.2947 140.508 14.048L141.696 9.076H152.476ZM161.357 12.772C162.765 12.772 163.836 13.0727 164.569 13.674C165.303 14.2607 165.669 15.1187 165.669 16.248C165.669 17.2013 165.413 18.0373 164.899 18.756C164.401 19.4747 163.689 20.032 162.765 20.428C161.841 20.8093 160.763 21 159.531 21H152.909L155.307 9.076H159.465L158.717 12.772H161.357ZM159.531 18.14C160.103 18.14 160.565 17.986 160.917 17.678C161.269 17.37 161.445 16.952 161.445 16.424C161.445 16.0427 161.335 15.764 161.115 15.588C160.895 15.412 160.558 15.324 160.103 15.324H158.211L157.661 18.14H159.531ZM187.87 9.076L185.472 21H166.574L168.972 9.076H173.13L171.458 17.656H174.67L176.342 9.076H180.522L178.85 17.656H182.04L183.712 9.076H187.87ZM201.736 14.114C201.736 14.686 201.656 15.3387 201.494 16.072H192.738C192.885 17.3627 193.787 18.008 195.444 18.008C195.972 18.008 196.486 17.9273 196.984 17.766C197.483 17.6047 197.93 17.3627 198.326 17.04L200.064 19.658C198.671 20.6847 196.977 21.198 194.982 21.198C193.721 21.198 192.606 20.978 191.638 20.538C190.685 20.0833 189.944 19.4527 189.416 18.646C188.903 17.8247 188.646 16.864 188.646 15.764C188.646 14.4587 188.947 13.2853 189.548 12.244C190.164 11.188 191.015 10.3667 192.1 9.78C193.2 9.17867 194.454 8.878 195.862 8.878C197.05 8.878 198.084 9.098 198.964 9.538C199.859 9.96333 200.541 10.572 201.01 11.364C201.494 12.156 201.736 13.0727 201.736 14.114ZM195.664 11.848C194.99 11.848 194.425 12.0313 193.97 12.398C193.516 12.75 193.186 13.2413 192.98 13.872H197.886C197.901 13.2413 197.703 12.75 197.292 12.398C196.882 12.0313 196.339 11.848 195.664 11.848ZM219.615 14.84C220.627 15.3093 221.133 16.1233 221.133 17.282C221.133 18.4407 220.649 19.35 219.681 20.01C218.727 20.67 217.378 21 215.633 21H208.769L211.167 9.076H217.415C218.823 9.076 219.908 9.32533 220.671 9.824C221.448 10.3227 221.837 11.0413 221.837 11.98C221.837 12.6253 221.639 13.1973 221.243 13.696C220.861 14.18 220.319 14.5613 219.615 14.84ZM213.917 13.872H216.205C216.703 13.872 217.107 13.762 217.415 13.542C217.723 13.3073 217.877 13.0067 217.877 12.64C217.877 12.332 217.767 12.1047 217.547 11.958C217.341 11.7967 217.041 11.716 216.645 11.716H214.357L213.917 13.872ZM215.699 18.294C216.227 18.294 216.645 18.184 216.953 17.964C217.261 17.7293 217.415 17.4213 217.415 17.04C217.415 16.4093 217.004 16.094 216.183 16.094H213.477L213.037 18.294H215.699ZM232.088 8.878C232.968 8.878 233.79 9.098 234.552 9.538C235.33 9.96333 235.953 10.5867 236.422 11.408C236.892 12.2293 237.126 13.19 237.126 14.29C237.126 15.5953 236.833 16.776 236.246 17.832C235.674 18.8733 234.89 19.6947 233.892 20.296C232.91 20.8973 231.832 21.198 230.658 21.198C228.928 21.198 227.71 20.6553 227.006 19.57L225.862 25.268H221.682L224.916 9.076H228.876L228.634 10.198C229.588 9.318 230.739 8.878 232.088 8.878ZM230.064 17.832C230.9 17.832 231.582 17.524 232.11 16.908C232.638 16.292 232.902 15.4927 232.902 14.51C232.902 13.806 232.697 13.2487 232.286 12.838C231.89 12.4273 231.34 12.222 230.636 12.222C229.8 12.222 229.118 12.53 228.59 13.146C228.062 13.762 227.798 14.5687 227.798 15.566C227.798 16.27 227.996 16.8273 228.392 17.238C228.803 17.634 229.36 17.832 230.064 17.832ZM251.387 14.114C251.387 14.686 251.306 15.3387 251.145 16.072H242.389C242.535 17.3627 243.437 18.008 245.095 18.008C245.623 18.008 246.136 17.9273 246.635 17.766C247.133 17.6047 247.581 17.3627 247.977 17.04L249.715 19.658C248.321 20.6847 246.627 21.198 244.633 21.198C243.371 21.198 242.257 20.978 241.289 20.538C240.335 20.0833 239.595 19.4527 239.067 18.646C238.553 17.8247 238.297 16.864 238.297 15.764C238.297 14.4587 238.597 13.2853 239.199 12.244C239.815 11.188 240.665 10.3667 241.751 9.78C242.851 9.17867 244.105 8.878 245.513 8.878C246.701 8.878 247.735 9.098 248.615 9.538C249.509 9.96333 250.191 10.572 250.661 11.364C251.145 12.156 251.387 13.0727 251.387 14.114ZM245.315 11.848C244.64 11.848 244.075 12.0313 243.621 12.398C243.166 12.75 242.836 13.2413 242.631 13.872H247.537C247.551 13.2413 247.353 12.75 246.943 12.398C246.532 12.0313 245.989 11.848 245.315 11.848ZM269.705 9.076L267.351 21H263.589L264.777 14.84L260.795 19.944H259.013L257.055 14.576L255.779 21H252.017L254.415 9.076H258.749L260.817 15.302L265.723 9.076H269.705ZM283.613 14.114C283.613 14.686 283.533 15.3387 283.371 16.072H274.615C274.762 17.3627 275.664 18.008 277.321 18.008C277.849 18.008 278.363 17.9273 278.861 17.766C279.36 17.6047 279.807 17.3627 280.203 17.04L281.941 19.658C280.548 20.6847 278.854 21.198 276.859 21.198C275.598 21.198 274.483 20.978 273.515 20.538C272.562 20.0833 271.821 19.4527 271.293 18.646C270.78 17.8247 270.523 16.864 270.523 15.764C270.523 14.4587 270.824 13.2853 271.425 12.244C272.041 11.188 272.892 10.3667 273.977 9.78C275.077 9.17867 276.331 8.878 277.739 8.878C278.927 8.878 279.961 9.098 280.841 9.538C281.736 9.96333 282.418 10.572 282.887 11.364C283.371 12.156 283.613 13.0727 283.613 14.114ZM277.541 11.848C276.867 11.848 276.302 12.0313 275.847 12.398C275.393 12.75 275.063 13.2413 274.857 13.872H279.763C279.778 13.2413 279.58 12.75 279.169 12.398C278.759 12.0313 278.216 11.848 277.541 11.848ZM286.641 9.076H290.799L289.897 13.498H294.187L295.089 9.076H299.247L296.849 21H292.691L293.527 16.82H289.237L288.401 21H284.243L286.641 9.076ZM302.089 9.076H306.247L304.927 15.412L311.153 9.076H315.091L312.693 21H308.513L309.855 14.642L303.629 21H299.691L302.089 9.076ZM334.27 12.398H330.398L328.726 21H324.546L326.218 12.398H322.434L323.116 9.076H334.952L334.27 12.398ZM345.019 14.84C346.031 15.3093 346.537 16.1233 346.537 17.282C346.537 18.4407 346.053 19.35 345.085 20.01C344.132 20.67 342.782 21 341.037 21H334.173L336.571 9.076H342.819C344.227 9.076 345.312 9.32533 346.075 9.824C346.852 10.3227 347.241 11.0413 347.241 11.98C347.241 12.6253 347.043 13.1973 346.647 13.696C346.266 14.18 345.723 14.5613 345.019 14.84ZM339.321 13.872H341.609C342.108 13.872 342.511 13.762 342.819 13.542C343.127 13.3073 343.281 13.0067 343.281 12.64C343.281 12.332 343.171 12.1047 342.951 11.958C342.746 11.7967 342.445 11.716 342.049 11.716H339.761L339.321 13.872ZM341.103 18.294C341.631 18.294 342.049 18.184 342.357 17.964C342.665 17.7293 342.819 17.4213 342.819 17.04C342.819 16.4093 342.408 16.094 341.587 16.094H338.881L338.441 18.294H341.103ZM354.501 21.198C353.239 21.198 352.139 20.978 351.201 20.538C350.262 20.0833 349.536 19.4453 349.023 18.624C348.509 17.8027 348.253 16.8493 348.253 15.764C348.253 14.4587 348.568 13.2853 349.199 12.244C349.829 11.2027 350.702 10.3813 351.817 9.78C352.931 9.17867 354.185 8.878 355.579 8.878C356.84 8.878 357.94 9.10533 358.879 9.56C359.817 10 360.543 10.6307 361.057 11.452C361.57 12.2587 361.827 13.2047 361.827 14.29C361.827 15.5953 361.511 16.776 360.881 17.832C360.25 18.8733 359.377 19.6947 358.263 20.296C357.163 20.8973 355.909 21.198 354.501 21.198ZM354.743 17.832C355.579 17.832 356.261 17.524 356.789 16.908C357.317 16.292 357.581 15.4927 357.581 14.51C357.581 13.806 357.383 13.2487 356.987 12.838C356.591 12.4273 356.041 12.222 355.337 12.222C354.501 12.222 353.819 12.53 353.291 13.146C352.763 13.762 352.499 14.5687 352.499 15.566C352.499 16.27 352.697 16.8273 353.093 17.238C353.489 17.634 354.039 17.832 354.743 17.832ZM372.123 8.878C373.003 8.878 373.825 9.098 374.587 9.538C375.365 9.96333 375.988 10.5867 376.457 11.408C376.927 12.2293 377.161 13.19 377.161 14.29C377.161 15.5953 376.868 16.776 376.281 17.832C375.709 18.8733 374.925 19.6947 373.927 20.296C372.945 20.8973 371.867 21.198 370.693 21.198C368.963 21.198 367.745 20.6553 367.041 19.57L365.897 25.268H361.717L364.951 9.076H368.911L368.669 10.198C369.623 9.318 370.774 8.878 372.123 8.878ZM370.099 17.832C370.935 17.832 371.617 17.524 372.145 16.908C372.673 16.292 372.937 15.4927 372.937 14.51C372.937 13.806 372.732 13.2487 372.321 12.838C371.925 12.4273 371.375 12.222 370.671 12.222C369.835 12.222 369.153 12.53 368.625 13.146C368.097 13.762 367.833 14.5687 367.833 15.566C367.833 16.27 368.031 16.8273 368.427 17.238C368.838 17.634 369.395 17.832 370.099 17.832ZM391.774 9.076L389.376 21H385.218L386.032 16.908C385.166 17.26 384.213 17.436 383.172 17.436C380.194 17.436 378.706 16.27 378.706 13.938C378.706 13.5273 378.75 13.08 378.838 12.596L379.564 9.076H383.722L382.996 12.662C382.937 13.014 382.908 13.2413 382.908 13.344C382.908 13.7107 383.01 13.9673 383.216 14.114C383.421 14.2607 383.744 14.334 384.184 14.334C385.02 14.334 385.848 14.1213 386.67 13.696L387.594 9.076H391.774ZM405.644 14.114C405.644 14.686 405.564 15.3387 405.402 16.072H396.646C396.793 17.3627 397.695 18.008 399.352 18.008C399.88 18.008 400.394 17.9273 400.892 17.766C401.391 17.6047 401.838 17.3627 402.234 17.04L403.972 19.658C402.579 20.6847 400.885 21.198 398.89 21.198C397.629 21.198 396.514 20.978 395.546 20.538C394.593 20.0833 393.852 19.4527 393.324 18.646C392.811 17.8247 392.554 16.864 392.554 15.764C392.554 14.4587 392.855 13.2853 393.456 12.244C394.072 11.188 394.923 10.3667 396.008 9.78C397.108 9.17867 398.362 8.878 399.77 8.878C400.958 8.878 401.992 9.098 402.872 9.538C403.767 9.96333 404.449 10.572 404.918 11.364C405.402 12.156 405.644 13.0727 405.644 14.114ZM399.572 11.848C398.898 11.848 398.333 12.0313 397.878 12.398C397.424 12.75 397.094 13.2413 396.888 13.872H401.794C401.809 13.2413 401.611 12.75 401.2 12.398C400.79 12.0313 400.247 11.848 399.572 11.848ZM412.875 21.198C411.613 21.198 410.506 20.978 409.553 20.538C408.614 20.0833 407.881 19.4453 407.353 18.624C406.839 17.8027 406.583 16.8493 406.583 15.764C406.583 14.4587 406.898 13.2853 407.529 12.244C408.159 11.2027 409.039 10.3813 410.169 9.78C411.298 9.17867 412.567 8.878 413.975 8.878C415.324 8.878 416.49 9.164 417.473 9.736C418.455 10.2933 419.174 11.0853 419.629 12.112L416.065 13.806C415.625 12.75 414.855 12.222 413.755 12.222C412.904 12.222 412.2 12.53 411.643 13.146C411.1 13.762 410.829 14.554 410.829 15.522C410.829 16.226 411.027 16.7907 411.423 17.216C411.833 17.6267 412.413 17.832 413.161 17.832C413.718 17.832 414.209 17.7073 414.635 17.458C415.06 17.2087 415.427 16.8127 415.735 16.27L418.793 18.118C418.221 19.086 417.414 19.8413 416.373 20.384C415.346 20.9267 414.18 21.198 412.875 21.198ZM432.238 12.398H428.366L426.694 21H422.514L424.186 12.398H420.402L421.084 9.076H432.92L432.238 12.398ZM442.988 14.84C444 15.3093 444.506 16.1233 444.506 17.282C444.506 18.4407 444.022 19.35 443.054 20.01C442.101 20.67 440.751 21 439.006 21H432.142L434.54 9.076H440.788C442.196 9.076 443.281 9.32533 444.044 9.824C444.821 10.3227 445.21 11.0413 445.21 11.98C445.21 12.6253 445.012 13.1973 444.616 13.696C444.235 14.18 443.692 14.5613 442.988 14.84ZM437.29 13.872H439.578C440.077 13.872 440.48 13.762 440.788 13.542C441.096 13.3073 441.25 13.0067 441.25 12.64C441.25 12.332 441.14 12.1047 440.92 11.958C440.715 11.7967 440.414 11.716 440.018 11.716H437.73L437.29 13.872ZM439.072 18.294C439.6 18.294 440.018 18.184 440.326 17.964C440.634 17.7293 440.788 17.4213 440.788 17.04C440.788 16.4093 440.377 16.094 439.556 16.094H436.85L436.41 18.294H439.072ZM461.005 9.076L453.371 21.528C452.741 22.54 452.132 23.3247 451.545 23.882C450.973 24.454 450.365 24.8573 449.719 25.092C449.074 25.3413 448.319 25.466 447.453 25.466C446.823 25.466 446.199 25.3707 445.583 25.18C444.953 24.9893 444.454 24.74 444.087 24.432L445.957 21.484C446.485 21.9387 447.101 22.166 447.805 22.166C448.187 22.166 448.509 22.078 448.773 21.902C449.037 21.7407 449.301 21.4693 449.565 21.088L446.859 9.076H451.017L452.513 16.402L456.913 9.076H461.005ZM462.493 5.6H467.487L464.693 15.39H461.371L462.493 5.6ZM462.207 21.198C461.518 21.198 460.946 20.9927 460.491 20.582C460.051 20.1713 459.831 19.6653 459.831 19.064C459.831 18.36 460.08 17.7807 460.579 17.326C461.078 16.8567 461.701 16.622 462.449 16.622C463.153 16.622 463.725 16.82 464.165 17.216C464.605 17.612 464.825 18.1107 464.825 18.712C464.825 19.4013 464.568 19.988 464.055 20.472C463.556 20.956 462.94 21.198 462.207 21.198Z" fill="url(#paint0_linear)" fill-opacity="0.9"/>
<path d="M82.668 53.308C81.1133 53.308 79.7567 53.022 78.598 52.45C77.454 51.878 76.5667 51.0787 75.936 50.052C75.32 49.0253 75.012 47.852 75.012 46.532C75.012 44.772 75.4153 43.188 76.222 41.78C77.0433 40.372 78.18 39.272 79.632 38.48C81.0987 37.688 82.7633 37.292 84.626 37.292C86.1807 37.292 87.53 37.578 88.674 38.15C89.8327 38.722 90.72 39.5213 91.336 40.548C91.9667 41.5747 92.282 42.748 92.282 44.068C92.282 45.828 91.8713 47.412 91.05 48.82C90.2433 50.228 89.1067 51.328 87.64 52.12C86.188 52.912 84.5307 53.308 82.668 53.308ZM83.042 49.7C84.01 49.7 84.8607 49.458 85.594 48.974C86.3273 48.49 86.892 47.8447 87.288 47.038C87.684 46.2167 87.882 45.3147 87.882 44.332C87.882 43.2907 87.5593 42.462 86.914 41.846C86.2833 41.2153 85.396 40.9 84.252 40.9C83.284 40.9 82.4333 41.142 81.7 41.626C80.9667 42.11 80.402 42.7627 80.006 43.584C79.61 44.3907 79.412 45.2853 79.412 46.268C79.412 47.3093 79.7273 48.1453 80.358 48.776C81.0033 49.392 81.898 49.7 83.042 49.7ZM99.404 53.198C98.1427 53.198 97.0353 52.978 96.082 52.538C95.1433 52.0833 94.41 51.4453 93.882 50.624C93.3687 49.8027 93.112 48.8493 93.112 47.764C93.112 46.4587 93.4273 45.2853 94.058 44.244C94.6887 43.2027 95.5687 42.3813 96.698 41.78C97.8273 41.1787 99.096 40.878 100.504 40.878C101.853 40.878 103.019 41.164 104.002 41.736C104.985 42.2933 105.703 43.0853 106.158 44.112L102.594 45.806C102.154 44.75 101.384 44.222 100.284 44.222C99.4333 44.222 98.7293 44.53 98.172 45.146C97.6293 45.762 97.358 46.554 97.358 47.522C97.358 48.226 97.556 48.7907 97.952 49.216C98.3627 49.6267 98.942 49.832 99.69 49.832C100.247 49.832 100.739 49.7073 101.164 49.458C101.589 49.2087 101.956 48.8127 102.264 48.27L105.322 50.118C104.75 51.086 103.943 51.8413 102.902 52.384C101.875 52.9267 100.709 53.198 99.404 53.198ZM118.768 44.398H114.896L113.224 53H109.044L110.716 44.398H106.932L107.614 41.076H119.45L118.768 44.398ZM133.159 41.076L130.783 53H126.823L127.065 51.878C126.111 52.758 124.96 53.198 123.611 53.198C122.731 53.198 121.902 52.9853 121.125 52.56C120.362 52.12 119.746 51.4893 119.277 50.668C118.807 49.8467 118.573 48.8787 118.573 47.764C118.573 46.4733 118.859 45.3073 119.431 44.266C120.017 43.21 120.802 42.3813 121.785 41.78C122.782 41.1787 123.867 40.878 125.041 40.878C126.771 40.878 127.989 41.4207 128.693 42.506L128.979 41.076H133.159ZM125.063 49.832C125.899 49.832 126.581 49.524 127.109 48.908C127.637 48.292 127.901 47.4927 127.901 46.51C127.901 45.806 127.695 45.2487 127.285 44.838C126.889 44.4273 126.339 44.222 125.635 44.222C124.799 44.222 124.117 44.53 123.589 45.146C123.061 45.762 122.797 46.5687 122.797 47.566C122.797 48.27 122.995 48.8273 123.391 49.238C123.801 49.634 124.359 49.832 125.063 49.832ZM148.123 41.076L145.725 53H141.545L143.261 44.398H140.247L139.785 46.224C139.359 47.9987 138.919 49.392 138.465 50.404C138.01 51.416 137.46 52.1493 136.815 52.604C136.184 53.0587 135.392 53.286 134.439 53.286C133.867 53.286 133.177 53.1907 132.371 53L133.251 49.59C133.515 49.6193 133.691 49.634 133.779 49.634C134.38 49.634 134.849 49.348 135.187 48.776C135.539 48.204 135.861 47.2947 136.155 46.048L137.343 41.076H148.123ZM157.004 44.772C158.412 44.772 159.483 45.0727 160.216 45.674C160.949 46.2607 161.316 47.1187 161.316 48.248C161.316 49.2013 161.059 50.0373 160.546 50.756C160.047 51.4747 159.336 52.032 158.412 52.428C157.488 52.8093 156.41 53 155.178 53H148.556L150.954 41.076H155.112L154.364 44.772H157.004ZM155.178 50.14C155.75 50.14 156.212 49.986 156.564 49.678C156.916 49.37 157.092 48.952 157.092 48.424C157.092 48.0427 156.982 47.764 156.762 47.588C156.542 47.412 156.205 47.324 155.75 47.324H153.858L153.308 50.14H155.178ZM164.618 41.076H168.776L167.874 45.498H172.164L173.066 41.076H177.224L174.826 53H170.668L171.504 48.82H167.214L166.378 53H162.22L164.618 41.076ZM184.223 53.198C182.962 53.198 181.862 52.978 180.923 52.538C179.985 52.0833 179.259 51.4453 178.745 50.624C178.232 49.8027 177.975 48.8493 177.975 47.764C177.975 46.4587 178.291 45.2853 178.921 44.244C179.552 43.2027 180.425 42.3813 181.539 41.78C182.654 41.1787 183.908 40.878 185.301 40.878C186.563 40.878 187.663 41.1053 188.601 41.56C189.54 42 190.266 42.6307 190.779 43.452C191.293 44.2587 191.549 45.2047 191.549 46.29C191.549 47.5953 191.234 48.776 190.603 49.832C189.973 50.8733 189.1 51.6947 187.985 52.296C186.885 52.8973 185.631 53.198 184.223 53.198ZM184.465 49.832C185.301 49.832 185.983 49.524 186.511 48.908C187.039 48.292 187.303 47.4927 187.303 46.51C187.303 45.806 187.105 45.2487 186.709 44.838C186.313 44.4273 185.763 44.222 185.059 44.222C184.223 44.222 183.541 44.53 183.013 45.146C182.485 45.762 182.221 46.5687 182.221 47.566C182.221 48.27 182.419 48.8273 182.815 49.238C183.211 49.634 183.761 49.832 184.465 49.832ZM205.74 46.114C205.74 46.686 205.659 47.3387 205.498 48.072H196.742C196.889 49.3627 197.791 50.008 199.448 50.008C199.976 50.008 200.489 49.9273 200.988 49.766C201.487 49.6047 201.934 49.3627 202.33 49.04L204.068 51.658C202.675 52.6847 200.981 53.198 198.986 53.198C197.725 53.198 196.61 52.978 195.642 52.538C194.689 52.0833 193.948 51.4527 193.42 50.646C192.907 49.8247 192.65 48.864 192.65 47.764C192.65 46.4587 192.951 45.2853 193.552 44.244C194.168 43.188 195.019 42.3667 196.104 41.78C197.204 41.1787 198.458 40.878 199.866 40.878C201.054 40.878 202.088 41.098 202.968 41.538C203.863 41.9633 204.545 42.572 205.014 43.364C205.498 44.156 205.74 45.0727 205.74 46.114ZM199.668 43.848C198.993 43.848 198.429 44.0313 197.974 44.398C197.519 44.75 197.189 45.2413 196.984 45.872H201.89C201.905 45.2413 201.707 44.75 201.296 44.398C200.885 44.0313 200.343 43.848 199.668 43.848ZM214.005 45.124H220.407L219.769 48.336H213.367L214.005 45.124ZM230.102 41.076H234.26L233.358 45.498H237.648L238.55 41.076H242.708L240.31 53H236.152L236.988 48.82H232.698L231.862 53H227.704L230.102 41.076ZM258.112 41.076L255.736 53H251.776L252.018 51.878C251.064 52.758 249.913 53.198 248.564 53.198C247.684 53.198 246.855 52.9853 246.078 52.56C245.315 52.12 244.699 51.4893 244.23 50.668C243.76 49.8467 243.526 48.8787 243.526 47.764C243.526 46.4733 243.812 45.3073 244.384 44.266C244.97 43.21 245.755 42.3813 246.738 41.78C247.735 41.1787 248.82 40.878 249.994 40.878C251.724 40.878 252.942 41.4207 253.646 42.506L253.932 41.076H258.112ZM250.016 49.832C250.852 49.832 251.534 49.524 252.062 48.908C252.59 48.292 252.854 47.4927 252.854 46.51C252.854 45.806 252.648 45.2487 252.238 44.838C251.842 44.4273 251.292 44.222 250.588 44.222C249.752 44.222 249.07 44.53 248.542 45.146C248.014 45.762 247.75 46.5687 247.75 47.566C247.75 48.27 247.948 48.8273 248.344 49.238C248.754 49.634 249.312 49.832 250.016 49.832ZM279.852 41.076L277.454 53H258.556L260.954 41.076H265.112L263.44 49.656H266.652L268.324 41.076H272.504L270.832 49.656H274.022L275.694 41.076H279.852ZM295.237 41.076L292.861 53H288.901L289.143 51.878C288.189 52.758 287.038 53.198 285.689 53.198C284.809 53.198 283.98 52.9853 283.203 52.56C282.44 52.12 281.824 51.4893 281.355 50.668C280.885 49.8467 280.651 48.8787 280.651 47.764C280.651 46.4733 280.937 45.3073 281.509 44.266C282.095 43.21 282.88 42.3813 283.863 41.78C284.86 41.1787 285.945 40.878 287.119 40.878C288.849 40.878 290.067 41.4207 290.771 42.506L291.057 41.076H295.237ZM287.141 49.832C287.977 49.832 288.659 49.524 289.187 48.908C289.715 48.292 289.979 47.4927 289.979 46.51C289.979 45.806 289.773 45.2487 289.363 44.838C288.967 44.4273 288.417 44.222 287.713 44.222C286.877 44.222 286.195 44.53 285.667 45.146C285.139 45.762 284.875 46.5687 284.875 47.566C284.875 48.27 285.073 48.8273 285.469 49.238C285.879 49.634 286.437 49.832 287.141 49.832ZM311.213 46.906C311.771 47.126 312.203 47.4487 312.511 47.874C312.819 48.2847 312.973 48.7613 312.973 49.304C312.973 50.0373 312.687 50.7047 312.115 51.306C311.543 51.9073 310.751 52.384 309.739 52.736C308.742 53.0733 307.613 53.242 306.351 53.242C304.591 53.242 302.912 52.8753 301.313 52.142L302.655 49.414C303.154 49.6487 303.748 49.8393 304.437 49.986C305.127 50.118 305.823 50.184 306.527 50.184C307.319 50.184 307.935 50.074 308.375 49.854C308.815 49.634 309.035 49.3333 309.035 48.952C309.035 48.6733 308.933 48.4753 308.727 48.358C308.522 48.226 308.207 48.16 307.781 48.16H305.185L305.581 45.718H307.737C308.265 45.718 308.669 45.6373 308.947 45.476C309.241 45.3 309.387 45.058 309.387 44.75C309.387 44.1633 308.83 43.87 307.715 43.87C307.173 43.87 306.63 43.9433 306.087 44.09C305.545 44.222 304.914 44.4493 304.195 44.772L303.337 41.758C304.936 41.142 306.527 40.834 308.111 40.834C309.138 40.834 310.055 40.9733 310.861 41.252C311.668 41.516 312.291 41.8973 312.731 42.396C313.186 42.8947 313.413 43.4667 313.413 44.112C313.413 44.728 313.215 45.2853 312.819 45.784C312.423 46.268 311.888 46.642 311.213 46.906ZM329.16 41.076L326.784 53H322.824L323.066 51.878C322.113 52.758 320.962 53.198 319.612 53.198C318.732 53.198 317.904 52.9853 317.126 52.56C316.364 52.12 315.748 51.4893 315.278 50.668C314.809 49.8467 314.574 48.8787 314.574 47.764C314.574 46.4733 314.86 45.3073 315.432 44.266C316.019 43.21 316.804 42.3813 317.786 41.78C318.784 41.1787 319.869 40.878 321.042 40.878C322.773 40.878 323.99 41.4207 324.694 42.506L324.98 41.076H329.16ZM321.064 49.832C321.9 49.832 322.582 49.524 323.11 48.908C323.638 48.292 323.902 47.4927 323.902 46.51C323.902 45.806 323.697 45.2487 323.286 44.838C322.89 44.4273 322.34 44.222 321.636 44.222C320.8 44.222 320.118 44.53 319.59 45.146C319.062 45.762 318.798 46.5687 318.798 47.566C318.798 48.27 318.996 48.8273 319.392 49.238C319.803 49.634 320.36 49.832 321.064 49.832ZM339.505 40.526C338.331 40.7167 337.385 41.054 336.667 41.538C335.948 42.0073 335.405 42.682 335.039 43.562C336.168 42.7993 337.444 42.418 338.867 42.418C340.407 42.418 341.609 42.8213 342.475 43.628C343.355 44.4347 343.795 45.5567 343.795 46.994C343.795 48.226 343.487 49.3187 342.871 50.272C342.255 51.2253 341.382 51.9733 340.253 52.516C339.138 53.044 337.847 53.308 336.381 53.308C334.43 53.308 332.927 52.802 331.871 51.79C330.829 50.778 330.309 49.26 330.309 47.236C330.309 45.5787 330.646 44.046 331.321 42.638C331.995 41.23 332.949 40.0567 334.181 39.118C335.427 38.1647 336.879 37.5413 338.537 37.248L344.631 36.192L344.565 39.69L339.505 40.526ZM337.239 45.476C336.432 45.476 335.765 45.7327 335.237 46.246C334.709 46.7593 334.445 47.3753 334.445 48.094C334.445 48.7687 334.628 49.2893 334.995 49.656C335.376 50.0227 335.889 50.206 336.535 50.206C337.341 50.206 337.994 49.9493 338.493 49.436C338.991 48.908 339.241 48.2553 339.241 47.478C339.241 46.8327 339.057 46.3413 338.691 46.004C338.339 45.652 337.855 45.476 337.239 45.476ZM351.178 53.198C349.917 53.198 348.817 52.978 347.878 52.538C346.94 52.0833 346.214 51.4453 345.7 50.624C345.187 49.8027 344.93 48.8493 344.93 47.764C344.93 46.4587 345.246 45.2853 345.876 44.244C346.507 43.2027 347.38 42.3813 348.494 41.78C349.609 41.1787 350.863 40.878 352.256 40.878C353.518 40.878 354.618 41.1053 355.556 41.56C356.495 42 357.221 42.6307 357.734 43.452C358.248 44.2587 358.504 45.2047 358.504 46.29C358.504 47.5953 358.189 48.776 357.558 49.832C356.928 50.8733 356.055 51.6947 354.94 52.296C353.84 52.8973 352.586 53.198 351.178 53.198ZM351.42 49.832C352.256 49.832 352.938 49.524 353.466 48.908C353.994 48.292 354.258 47.4927 354.258 46.51C354.258 45.806 354.06 45.2487 353.664 44.838C353.268 44.4273 352.718 44.222 352.014 44.222C351.178 44.222 350.496 44.53 349.968 45.146C349.44 45.762 349.176 46.5687 349.176 47.566C349.176 48.27 349.374 48.8273 349.77 49.238C350.166 49.634 350.716 49.832 351.42 49.832ZM371.188 44.398H367.316L365.644 53H361.464L363.136 44.398H359.352L360.034 41.076H371.87L371.188 44.398ZM385.578 41.076L383.202 53H379.242L379.484 51.878C378.531 52.758 377.38 53.198 376.03 53.198C375.15 53.198 374.322 52.9853 373.544 52.56C372.782 52.12 372.166 51.4893 371.696 50.668C371.227 49.8467 370.992 48.8787 370.992 47.764C370.992 46.4733 371.278 45.3073 371.85 44.266C372.437 43.21 373.222 42.3813 374.204 41.78C375.202 41.1787 376.287 40.878 377.46 40.878C379.191 40.878 380.408 41.4207 381.112 42.506L381.398 41.076H385.578ZM377.482 49.832C378.318 49.832 379 49.524 379.528 48.908C380.056 48.292 380.32 47.4927 380.32 46.51C380.32 45.806 380.115 45.2487 379.704 44.838C379.308 44.4273 378.758 44.222 378.054 44.222C377.218 44.222 376.536 44.53 376.008 45.146C375.48 45.762 375.216 46.5687 375.216 47.566C375.216 48.27 375.414 48.8273 375.81 49.238C376.221 49.634 376.778 49.832 377.482 49.832Z" fill="#3F3F3F"/>
<defs>
<linearGradient id="paint0_linear" x1="-2.95679e-06" y1="13.0001" x2="467" y2="13.0001" gradientUnits="userSpaceOnUse">
<stop stop-color="#D5277A"/>
<stop offset="0.348958" stop-color="#019EDA"/>
<stop offset="0.713542" stop-color="#6BBE68"/>
<stop offset="1" stop-color="#FCDB43"/>
</linearGradient>
</defs>
</svg>
