<svg 
 xmlns="http://www.w3.org/2000/svg"
 xmlns:xlink="http://www.w3.org/1999/xlink"
 width="408px" height="42px">
<defs>
<linearGradient id="PSgrad_0" x1="0%" x2="100%" y1="0%" y2="0%">
  <stop offset="0%" stop-color="rgb(0,159,227)" stop-opacity="0.5" />
  <stop offset="30%" stop-color="rgb(230,0,126)" stop-opacity="0.5" />
  <stop offset="70%" stop-color="rgb(255,222,0)" stop-opacity="0.5" />
  <stop offset="100%" stop-color="rgb(0,159,227)" stop-opacity="0.5" />
</linearGradient>

</defs>
<path fill-rule="evenodd"  fill="rgb(87, 87, 87)"
 d="M407.240,3.960 L404.860,9.980 L402.980,9.980 L403.120,4.040 L403.820,0.760 L407.900,0.760 L407.240,3.960 ZM404.840,15.000 L400.860,15.000 L401.700,11.060 L405.660,11.060 L404.840,15.000 ZM395.000,17.010 C394.627,17.457 394.147,17.790 393.560,18.010 C392.973,18.230 392.193,18.340 391.220,18.340 C390.353,18.340 389.593,18.313 388.940,18.260 L389.580,15.140 C389.860,15.180 390.173,15.200 390.520,15.200 C391.080,15.200 391.463,15.133 391.670,15.000 C391.877,14.867 391.980,14.620 391.980,14.260 C391.980,13.913 391.887,13.320 391.700,12.480 L390.160,4.680 L394.160,4.680 L394.540,7.840 C394.740,9.413 394.840,10.673 394.840,11.620 C395.107,10.540 395.560,9.260 396.200,7.780 L397.540,4.680 L401.660,4.680 L396.300,14.940 C395.807,15.873 395.373,16.563 395.000,17.010 ZM387.640,9.420 C388.600,9.767 389.080,10.473 389.080,11.540 C389.080,12.527 388.713,13.353 387.980,14.020 C387.660,14.313 387.283,14.537 386.850,14.690 C386.417,14.843 386.037,14.933 385.710,14.960 C385.383,14.987 384.933,15.000 384.360,15.000 L377.420,15.000 L379.640,4.680 L385.960,4.680 C386.453,4.680 386.883,4.707 387.250,4.760 C387.617,4.813 387.987,4.917 388.360,5.070 C388.733,5.223 389.020,5.467 389.220,5.800 C389.420,6.133 389.520,6.560 389.520,7.080 C389.520,7.680 389.347,8.197 389.000,8.630 C388.653,9.063 388.200,9.327 387.640,9.420 ZM381.820,12.560 L383.360,12.560 C383.947,12.560 384.347,12.487 384.560,12.340 C384.853,12.127 385.000,11.840 385.000,11.480 C385.000,10.933 384.620,10.647 383.860,10.620 C383.807,10.620 383.647,10.620 383.380,10.620 L382.220,10.620 L381.820,12.560 ZM385.270,7.220 C385.117,7.113 384.970,7.053 384.830,7.040 C384.690,7.027 384.500,7.020 384.260,7.020 L383.000,7.020 L382.640,8.620 L384.180,8.620 C385.060,8.620 385.500,8.313 385.500,7.700 C385.500,7.487 385.423,7.327 385.270,7.220 ZM374.620,7.660 L373.060,15.000 L369.140,15.000 L370.700,7.660 L367.400,7.660 L368.040,4.680 L378.560,4.680 L377.920,7.660 L374.620,7.660 ZM363.560,8.460 C363.560,8.047 363.443,7.727 363.210,7.500 C362.977,7.273 362.647,7.160 362.220,7.160 C361.700,7.160 361.263,7.383 360.910,7.830 C360.557,8.277 360.323,8.760 360.210,9.280 C360.097,9.800 360.040,10.320 360.040,10.840 C360.040,12.067 360.513,12.680 361.460,12.680 C361.940,12.680 362.307,12.517 362.560,12.190 C362.813,11.863 363.020,11.420 363.180,10.860 L366.980,10.860 C366.607,12.393 365.973,13.513 365.080,14.220 C364.187,14.927 362.967,15.280 361.420,15.280 C359.833,15.280 358.567,14.893 357.620,14.120 C356.673,13.347 356.200,12.160 356.200,10.560 C356.200,8.693 356.763,7.210 357.890,6.110 C359.017,5.010 360.500,4.460 362.340,4.460 C363.873,4.460 365.093,4.817 366.000,5.530 C366.907,6.243 367.360,7.200 367.360,8.400 L367.360,8.580 L363.560,8.580 L363.560,8.460 ZM347.020,10.760 C347.007,10.853 347.000,10.947 347.000,11.040 C347.000,12.187 347.580,12.760 348.740,12.760 C349.460,12.760 349.947,12.493 350.200,11.960 L354.040,11.960 C353.347,14.187 351.513,15.300 348.540,15.300 C346.927,15.300 345.653,14.917 344.720,14.150 C343.787,13.383 343.320,12.180 343.320,10.540 C343.320,8.727 343.887,7.253 345.020,6.120 C346.153,4.987 347.633,4.420 349.460,4.420 C351.087,4.420 352.357,4.837 353.270,5.670 C354.183,6.503 354.640,7.660 354.640,9.140 C354.640,9.647 354.587,10.187 354.480,10.760 L347.020,10.760 ZM350.940,8.480 C350.940,8.027 350.800,7.663 350.520,7.390 C350.240,7.117 349.867,6.980 349.400,6.980 C348.907,6.980 348.477,7.130 348.110,7.430 C347.743,7.730 347.487,8.153 347.340,8.700 L350.940,8.700 L350.940,8.480 ZM337.040,15.000 L337.900,10.940 C336.700,11.340 335.600,11.540 334.600,11.540 C332.693,11.540 331.740,10.647 331.740,8.860 C331.740,8.447 331.800,7.967 331.920,7.420 L332.500,4.680 L336.440,4.680 L335.960,6.920 C335.893,7.280 335.860,7.553 335.860,7.740 C335.860,8.113 335.950,8.380 336.130,8.540 C336.310,8.700 336.587,8.780 336.960,8.780 C337.387,8.780 337.787,8.673 338.160,8.460 L338.960,4.680 L342.900,4.680 L340.700,15.000 L337.040,15.000 ZM328.750,13.110 C328.343,13.757 327.800,14.280 327.120,14.680 C326.440,15.080 325.673,15.280 324.820,15.280 C323.393,15.280 322.387,14.787 321.800,13.800 L320.840,18.340 L316.880,18.340 L319.760,4.680 L323.580,4.680 L323.360,5.760 C324.160,4.867 325.147,4.420 326.320,4.420 C327.427,4.420 328.317,4.810 328.990,5.590 C329.663,6.370 330.000,7.407 330.000,8.700 C330.000,9.487 329.893,10.257 329.680,11.010 C329.467,11.763 329.157,12.463 328.750,13.110 ZM325.650,7.940 C325.417,7.647 325.093,7.500 324.680,7.500 C323.907,7.500 323.343,7.810 322.990,8.430 C322.637,9.050 322.460,9.787 322.460,10.640 C322.460,11.187 322.590,11.610 322.850,11.910 C323.110,12.210 323.480,12.360 323.960,12.360 C324.640,12.360 325.150,12.013 325.490,11.320 C325.830,10.627 326.000,9.900 326.000,9.140 C326.000,8.633 325.883,8.233 325.650,7.940 ZM310.400,15.320 C308.840,15.320 307.590,14.937 306.650,14.170 C305.710,13.403 305.240,12.240 305.240,10.680 C305.240,8.827 305.803,7.320 306.930,6.160 C308.057,5.000 309.560,4.420 311.440,4.420 C312.973,4.420 314.217,4.807 315.170,5.580 C316.123,6.353 316.600,7.500 316.600,9.020 C316.600,10.887 316.037,12.403 314.910,13.570 C313.783,14.737 312.280,15.320 310.400,15.320 ZM312.340,7.630 C312.113,7.317 311.760,7.160 311.280,7.160 C310.893,7.160 310.553,7.290 310.260,7.550 C309.967,7.810 309.743,8.143 309.590,8.550 C309.437,8.957 309.323,9.357 309.250,9.750 C309.177,10.143 309.140,10.513 309.140,10.860 C309.140,11.993 309.607,12.560 310.540,12.560 C310.927,12.560 311.267,12.430 311.560,12.170 C311.853,11.910 312.077,11.577 312.230,11.170 C312.383,10.763 312.497,10.363 312.570,9.970 C312.643,9.577 312.680,9.207 312.680,8.860 C312.680,8.353 312.567,7.943 312.340,7.630 ZM302.640,9.420 C303.600,9.767 304.080,10.473 304.080,11.540 C304.080,12.527 303.713,13.353 302.980,14.020 C302.660,14.313 302.283,14.537 301.850,14.690 C301.417,14.843 301.037,14.933 300.710,14.960 C300.383,14.987 299.933,15.000 299.360,15.000 L292.420,15.000 L294.640,4.680 L300.960,4.680 C301.453,4.680 301.883,4.707 302.250,4.760 C302.617,4.813 302.987,4.917 303.360,5.070 C303.733,5.223 304.020,5.467 304.220,5.800 C304.420,6.133 304.520,6.560 304.520,7.080 C304.520,7.680 304.347,8.197 304.000,8.630 C303.653,9.063 303.200,9.327 302.640,9.420 ZM296.820,12.560 L298.360,12.560 C298.947,12.560 299.347,12.487 299.560,12.340 C299.853,12.127 300.000,11.840 300.000,11.480 C300.000,10.933 299.620,10.647 298.860,10.620 C298.807,10.620 298.647,10.620 298.380,10.620 L297.220,10.620 L296.820,12.560 ZM300.270,7.220 C300.117,7.113 299.970,7.053 299.830,7.040 C299.690,7.027 299.500,7.020 299.260,7.020 L298.000,7.020 L297.640,8.620 L299.180,8.620 C300.060,8.620 300.500,8.313 300.500,7.700 C300.500,7.487 300.423,7.327 300.270,7.220 ZM289.620,7.660 L288.060,15.000 L284.140,15.000 L285.700,7.660 L282.400,7.660 L283.040,4.680 L293.560,4.680 L292.920,7.660 L289.620,7.660 ZM268.640,15.000 L269.820,9.500 L269.760,9.500 L265.680,15.000 L261.640,15.000 L263.840,4.680 L267.620,4.680 L266.480,10.040 L266.540,10.040 L270.580,4.680 L274.620,4.680 L272.420,15.000 L268.640,15.000 ZM255.480,15.000 L256.320,11.060 L253.420,11.060 L252.580,15.000 L248.640,15.000 L250.840,4.680 L254.780,4.680 L254.060,8.080 L256.960,8.080 L257.680,4.680 L261.620,4.680 L259.420,15.000 L255.480,15.000 ZM240.020,10.760 C240.007,10.853 240.000,10.947 240.000,11.040 C240.000,12.187 240.580,12.760 241.740,12.760 C242.460,12.760 242.947,12.493 243.200,11.960 L247.040,11.960 C246.347,14.187 244.513,15.300 241.540,15.300 C239.927,15.300 238.653,14.917 237.720,14.150 C236.787,13.383 236.320,12.180 236.320,10.540 C236.320,8.727 236.887,7.253 238.020,6.120 C239.153,4.987 240.633,4.420 242.460,4.420 C244.087,4.420 245.357,4.837 246.270,5.670 C247.183,6.503 247.640,7.660 247.640,9.140 C247.640,9.647 247.587,10.187 247.480,10.760 L240.020,10.760 ZM243.940,8.480 C243.940,8.027 243.800,7.663 243.520,7.390 C243.240,7.117 242.867,6.980 242.400,6.980 C241.907,6.980 241.477,7.130 241.110,7.430 C240.743,7.730 240.487,8.153 240.340,8.700 L243.940,8.700 L243.940,8.480 ZM229.780,15.000 L231.260,8.540 L231.200,8.540 L227.700,15.000 L225.360,15.000 L224.620,8.540 L224.560,8.540 L223.280,15.000 L219.620,15.000 L221.820,4.680 L226.680,4.680 L227.360,10.700 L227.380,10.700 L230.600,4.680 L235.640,4.680 L233.440,15.000 L229.780,15.000 ZM211.020,10.760 C211.007,10.853 211.000,10.947 211.000,11.040 C211.000,12.187 211.580,12.760 212.740,12.760 C213.460,12.760 213.947,12.493 214.200,11.960 L218.040,11.960 C217.347,14.187 215.513,15.300 212.540,15.300 C210.927,15.300 209.653,14.917 208.720,14.150 C207.787,13.383 207.320,12.180 207.320,10.540 C207.320,8.727 207.887,7.253 209.020,6.120 C210.153,4.987 211.633,4.420 213.460,4.420 C215.087,4.420 216.357,4.837 217.270,5.670 C218.183,6.503 218.640,7.660 218.640,9.140 C218.640,9.647 218.587,10.187 218.480,10.760 L211.020,10.760 ZM214.940,8.480 C214.940,8.027 214.800,7.663 214.520,7.390 C214.240,7.117 213.867,6.980 213.400,6.980 C212.907,6.980 212.477,7.130 212.110,7.430 C211.743,7.730 211.487,8.153 211.340,8.700 L214.940,8.700 L214.940,8.480 ZM204.750,13.110 C204.343,13.757 203.800,14.280 203.120,14.680 C202.440,15.080 201.673,15.280 200.820,15.280 C199.393,15.280 198.387,14.787 197.800,13.800 L196.840,18.340 L192.880,18.340 L195.760,4.680 L199.580,4.680 L199.360,5.760 C200.160,4.867 201.147,4.420 202.320,4.420 C203.427,4.420 204.317,4.810 204.990,5.590 C205.663,6.370 206.000,7.407 206.000,8.700 C206.000,9.487 205.893,10.257 205.680,11.010 C205.467,11.763 205.157,12.463 204.750,13.110 ZM201.650,7.940 C201.417,7.647 201.093,7.500 200.680,7.500 C199.907,7.500 199.343,7.810 198.990,8.430 C198.637,9.050 198.460,9.787 198.460,10.640 C198.460,11.187 198.590,11.610 198.850,11.910 C199.110,12.210 199.480,12.360 199.960,12.360 C200.640,12.360 201.150,12.013 201.490,11.320 C201.830,10.627 202.000,9.900 202.000,9.140 C202.000,8.633 201.883,8.233 201.650,7.940 ZM191.640,9.420 C192.600,9.767 193.080,10.473 193.080,11.540 C193.080,12.527 192.713,13.353 191.980,14.020 C191.660,14.313 191.283,14.537 190.850,14.690 C190.417,14.843 190.037,14.933 189.710,14.960 C189.383,14.987 188.933,15.000 188.360,15.000 L181.420,15.000 L183.640,4.680 L189.960,4.680 C190.453,4.680 190.883,4.707 191.250,4.760 C191.617,4.813 191.987,4.917 192.360,5.070 C192.733,5.223 193.020,5.467 193.220,5.800 C193.420,6.133 193.520,6.560 193.520,7.080 C193.520,7.680 193.347,8.197 193.000,8.630 C192.653,9.063 192.200,9.327 191.640,9.420 ZM185.820,12.560 L187.360,12.560 C187.947,12.560 188.347,12.487 188.560,12.340 C188.853,12.127 189.000,11.840 189.000,11.480 C189.000,10.933 188.620,10.647 187.860,10.620 C187.807,10.620 187.647,10.620 187.380,10.620 L186.220,10.620 L185.820,12.560 ZM189.270,7.220 C189.117,7.113 188.970,7.053 188.830,7.040 C188.690,7.027 188.500,7.020 188.260,7.020 L187.000,7.020 L186.640,8.620 L188.180,8.620 C189.060,8.620 189.500,8.313 189.500,7.700 C189.500,7.487 189.423,7.327 189.270,7.220 ZM166.020,10.760 C166.007,10.853 166.000,10.947 166.000,11.040 C166.000,12.187 166.580,12.760 167.740,12.760 C168.460,12.760 168.947,12.493 169.200,11.960 L173.040,11.960 C172.347,14.187 170.513,15.300 167.540,15.300 C165.927,15.300 164.653,14.917 163.720,14.150 C162.787,13.383 162.320,12.180 162.320,10.540 C162.320,8.727 162.887,7.253 164.020,6.120 C165.153,4.987 166.633,4.420 168.460,4.420 C170.087,4.420 171.357,4.837 172.270,5.670 C173.183,6.503 173.640,7.660 173.640,9.140 C173.640,9.647 173.587,10.187 173.480,10.760 L166.020,10.760 ZM169.940,8.480 C169.940,8.027 169.800,7.663 169.520,7.390 C169.240,7.117 168.867,6.980 168.400,6.980 C167.907,6.980 167.477,7.130 167.110,7.430 C166.743,7.730 166.487,8.153 166.340,8.700 L169.940,8.700 L169.940,8.480 ZM143.620,15.000 L145.820,4.680 L149.680,4.680 L148.120,11.980 L150.460,11.980 L152.020,4.680 L155.860,4.680 L154.300,11.980 L156.640,11.980 L158.200,4.680 L162.060,4.680 L159.860,15.000 L143.620,15.000 ZM141.280,14.320 C140.573,14.773 139.527,15.000 138.140,15.000 L131.620,15.000 L133.820,4.680 L137.760,4.680 L137.080,7.900 L139.180,7.900 C140.367,7.900 141.297,8.133 141.970,8.600 C142.643,9.067 142.980,9.873 142.980,11.020 C142.980,11.700 142.827,12.333 142.520,12.920 C142.213,13.507 141.800,13.973 141.280,14.320 ZM138.620,10.510 C138.393,10.383 138.080,10.320 137.680,10.320 L136.560,10.320 L136.100,12.500 L137.320,12.500 C137.840,12.500 138.243,12.413 138.530,12.240 C138.817,12.067 138.960,11.740 138.960,11.260 C138.960,10.887 138.847,10.637 138.620,10.510 ZM125.220,15.000 L126.780,7.660 L124.800,7.660 C124.413,9.420 124.007,10.827 123.580,11.880 C123.073,13.080 122.493,13.933 121.840,14.440 C121.187,14.947 120.313,15.200 119.220,15.200 C119.047,15.200 118.820,15.177 118.540,15.130 C118.260,15.083 118.027,15.040 117.840,15.000 L117.540,14.920 L118.140,12.100 C118.540,12.193 118.827,12.240 119.000,12.240 C119.200,12.240 119.377,12.170 119.530,12.030 C119.683,11.890 119.823,11.670 119.950,11.370 C120.077,11.070 120.180,10.790 120.260,10.530 C120.340,10.270 120.433,9.927 120.540,9.500 C120.567,9.393 120.587,9.313 120.600,9.260 C120.813,8.460 121.160,6.933 121.640,4.680 L131.340,4.680 L129.140,15.000 L125.220,15.000 ZM112.400,15.320 C110.840,15.320 109.590,14.937 108.650,14.170 C107.710,13.403 107.240,12.240 107.240,10.680 C107.240,8.827 107.803,7.320 108.930,6.160 C110.057,5.000 111.560,4.420 113.440,4.420 C114.973,4.420 116.217,4.807 117.170,5.580 C118.123,6.353 118.600,7.500 118.600,9.020 C118.600,10.887 118.037,12.403 116.910,13.570 C115.783,14.737 114.280,15.320 112.400,15.320 ZM114.340,7.630 C114.113,7.317 113.760,7.160 113.280,7.160 C112.893,7.160 112.553,7.290 112.260,7.550 C111.967,7.810 111.743,8.143 111.590,8.550 C111.437,8.957 111.323,9.357 111.250,9.750 C111.177,10.143 111.140,10.513 111.140,10.860 C111.140,11.993 111.607,12.560 112.540,12.560 C112.927,12.560 113.267,12.430 113.560,12.170 C113.853,11.910 114.077,11.577 114.230,11.170 C114.383,10.763 114.497,10.363 114.570,9.970 C114.643,9.577 114.680,9.207 114.680,8.860 C114.680,8.353 114.567,7.943 114.340,7.630 ZM105.360,2.640 C105.107,2.867 104.690,3.073 104.110,3.260 C103.530,3.447 103.107,3.567 102.840,3.620 C102.573,3.673 102.067,3.760 101.320,3.880 C101.253,3.893 101.200,3.903 101.160,3.910 C101.120,3.917 101.073,3.923 101.020,3.930 C100.967,3.937 100.913,3.947 100.860,3.960 C98.993,4.267 97.853,5.147 97.440,6.600 L97.500,6.600 C98.380,5.320 99.693,4.680 101.440,4.680 C102.587,4.680 103.573,5.093 104.400,5.920 C105.227,6.747 105.640,7.813 105.640,9.120 C105.640,10.880 105.023,12.350 103.790,13.530 C102.557,14.710 101.060,15.300 99.300,15.300 C97.913,15.300 96.767,14.840 95.860,13.920 C94.953,13.000 94.500,11.860 94.500,10.500 C94.500,9.647 94.570,8.803 94.710,7.970 C94.850,7.137 95.090,6.263 95.430,5.350 C95.770,4.437 96.283,3.617 96.970,2.890 C97.657,2.163 98.487,1.620 99.460,1.260 C99.887,1.100 100.367,0.983 100.900,0.910 C101.433,0.837 101.873,0.757 102.220,0.670 C102.567,0.583 102.853,0.427 103.080,0.200 L106.720,0.200 C106.613,0.760 106.423,1.250 106.150,1.670 C105.877,2.090 105.613,2.413 105.360,2.640 ZM99.700,12.460 C100.193,12.460 100.597,12.260 100.910,11.860 C101.223,11.460 101.430,11.030 101.530,10.570 C101.630,10.110 101.680,9.633 101.680,9.140 C101.680,8.060 101.240,7.520 100.360,7.520 C99.987,7.520 99.663,7.627 99.390,7.840 C99.117,8.053 98.913,8.337 98.780,8.690 C98.647,9.043 98.550,9.393 98.490,9.740 C98.430,10.087 98.400,10.433 98.400,10.780 C98.400,11.900 98.833,12.460 99.700,12.460 ZM78.020,10.760 C78.007,10.853 78.000,10.947 78.000,11.040 C78.000,12.187 78.580,12.760 79.740,12.760 C80.460,12.760 80.947,12.493 81.200,11.960 L85.040,11.960 C84.347,14.187 82.513,15.300 79.540,15.300 C77.927,15.300 76.653,14.917 75.720,14.150 C74.787,13.383 74.320,12.180 74.320,10.540 C74.320,8.727 74.887,7.253 76.020,6.120 C77.153,4.987 78.633,4.420 80.460,4.420 C82.087,4.420 83.357,4.837 84.270,5.670 C85.183,6.503 85.640,7.660 85.640,9.140 C85.640,9.647 85.587,10.187 85.480,10.760 L78.020,10.760 ZM81.940,8.480 C81.940,8.027 81.800,7.663 81.520,7.390 C81.240,7.117 80.867,6.980 80.400,6.980 C79.907,6.980 79.477,7.130 79.110,7.430 C78.743,7.730 78.487,8.153 78.340,8.700 L81.940,8.700 L81.940,8.480 ZM70.620,7.660 L69.060,15.000 L65.140,15.000 L66.700,7.660 L63.400,7.660 L64.040,4.680 L74.560,4.680 L73.920,7.660 L70.620,7.660 ZM56.640,15.000 L57.820,9.500 L57.760,9.500 L53.680,15.000 L49.640,15.000 L51.840,4.680 L55.620,4.680 L54.480,10.040 L54.540,10.040 L58.580,4.680 L62.620,4.680 L60.420,15.000 L56.640,15.000 ZM43.220,15.000 L44.780,7.660 L42.800,7.660 C42.413,9.420 42.007,10.827 41.580,11.880 C41.073,13.080 40.493,13.933 39.840,14.440 C39.187,14.947 38.313,15.200 37.220,15.200 C37.047,15.200 36.820,15.177 36.540,15.130 C36.260,15.083 36.027,15.040 35.840,15.000 L35.540,14.920 L36.140,12.100 C36.540,12.193 36.827,12.240 37.000,12.240 C37.200,12.240 37.377,12.170 37.530,12.030 C37.683,11.890 37.823,11.670 37.950,11.370 C38.077,11.070 38.180,10.790 38.260,10.530 C38.340,10.270 38.433,9.927 38.540,9.500 C38.567,9.393 38.587,9.313 38.600,9.260 C38.813,8.460 39.160,6.933 39.640,4.680 L49.340,4.680 L47.140,15.000 L43.220,15.000 ZM29.020,10.760 C29.007,10.853 29.000,10.947 29.000,11.040 C29.000,12.187 29.580,12.760 30.740,12.760 C31.460,12.760 31.947,12.493 32.200,11.960 L36.040,11.960 C35.347,14.187 33.513,15.300 30.540,15.300 C28.927,15.300 27.653,14.917 26.720,14.150 C25.787,13.383 25.320,12.180 25.320,10.540 C25.320,8.727 25.887,7.253 27.020,6.120 C28.153,4.987 29.633,4.420 31.460,4.420 C33.087,4.420 34.357,4.837 35.270,5.670 C36.183,6.503 36.640,7.660 36.640,9.140 C36.640,9.647 36.587,10.187 36.480,10.760 L29.020,10.760 ZM32.940,8.480 C32.940,8.027 32.800,7.663 32.520,7.390 C32.240,7.117 31.867,6.980 31.400,6.980 C30.907,6.980 30.477,7.130 30.110,7.430 C29.743,7.730 29.487,8.153 29.340,8.700 L32.940,8.700 L32.940,8.480 ZM24.060,12.020 L22.840,17.740 L19.300,17.740 L19.880,15.000 L14.160,15.000 L13.580,17.740 L10.100,17.740 L11.320,12.020 L12.380,12.020 C13.553,10.713 14.527,8.267 15.300,4.680 L24.380,4.680 L22.820,12.020 L24.060,12.020 ZM18.080,7.540 L18.060,7.660 C17.967,8.207 17.740,8.950 17.380,9.890 C17.020,10.830 16.627,11.540 16.200,12.020 L19.020,12.020 L19.960,7.540 L18.080,7.540 ZM2.940,15.360 C2.380,15.360 1.827,15.310 1.280,15.210 C0.733,15.110 0.353,15.007 0.140,14.900 L0.880,11.480 C0.947,11.560 1.140,11.650 1.460,11.750 C1.780,11.850 2.093,11.900 2.400,11.900 C2.720,11.900 3.017,11.810 3.290,11.630 C3.563,11.450 3.740,11.193 3.820,10.860 C3.860,10.620 3.847,10.367 3.780,10.100 L1.220,0.760 L5.900,0.760 L6.340,3.900 C6.487,4.927 6.627,6.160 6.760,7.600 C7.147,6.720 7.573,5.820 8.040,4.900 L10.180,0.760 L15.140,0.760 L7.700,12.400 C6.447,14.373 4.860,15.360 2.940,15.360 Z"/>
<path fill="url(#PSgrad_0)"
 d="M407.240,3.960 L404.860,9.980 L402.980,9.980 L403.120,4.040 L403.820,0.760 L407.900,0.760 L407.240,3.960 ZM404.840,15.000 L400.860,15.000 L401.700,11.060 L405.660,11.060 L404.840,15.000 ZM395.000,17.010 C394.627,17.457 394.147,17.790 393.560,18.010 C392.973,18.230 392.193,18.340 391.220,18.340 C390.353,18.340 389.593,18.313 388.940,18.260 L389.580,15.140 C389.860,15.180 390.173,15.200 390.520,15.200 C391.080,15.200 391.463,15.133 391.670,15.000 C391.877,14.867 391.980,14.620 391.980,14.260 C391.980,13.913 391.887,13.320 391.700,12.480 L390.160,4.680 L394.160,4.680 L394.540,7.840 C394.740,9.413 394.840,10.673 394.840,11.620 C395.107,10.540 395.560,9.260 396.200,7.780 L397.540,4.680 L401.660,4.680 L396.300,14.940 C395.807,15.873 395.373,16.563 395.000,17.010 ZM387.640,9.420 C388.600,9.767 389.080,10.473 389.080,11.540 C389.080,12.527 388.713,13.353 387.980,14.020 C387.660,14.313 387.283,14.537 386.850,14.690 C386.417,14.843 386.037,14.933 385.710,14.960 C385.383,14.987 384.933,15.000 384.360,15.000 L377.420,15.000 L379.640,4.680 L385.960,4.680 C386.453,4.680 386.883,4.707 387.250,4.760 C387.617,4.813 387.987,4.917 388.360,5.070 C388.733,5.223 389.020,5.467 389.220,5.800 C389.420,6.133 389.520,6.560 389.520,7.080 C389.520,7.680 389.347,8.197 389.000,8.630 C388.653,9.063 388.200,9.327 387.640,9.420 ZM381.820,12.560 L383.360,12.560 C383.947,12.560 384.347,12.487 384.560,12.340 C384.853,12.127 385.000,11.840 385.000,11.480 C385.000,10.933 384.620,10.647 383.860,10.620 C383.807,10.620 383.647,10.620 383.380,10.620 L382.220,10.620 L381.820,12.560 ZM385.270,7.220 C385.117,7.113 384.970,7.053 384.830,7.040 C384.690,7.027 384.500,7.020 384.260,7.020 L383.000,7.020 L382.640,8.620 L384.180,8.620 C385.060,8.620 385.500,8.313 385.500,7.700 C385.500,7.487 385.423,7.327 385.270,7.220 ZM374.620,7.660 L373.060,15.000 L369.140,15.000 L370.700,7.660 L367.400,7.660 L368.040,4.680 L378.560,4.680 L377.920,7.660 L374.620,7.660 ZM363.560,8.460 C363.560,8.047 363.443,7.727 363.210,7.500 C362.977,7.273 362.647,7.160 362.220,7.160 C361.700,7.160 361.263,7.383 360.910,7.830 C360.557,8.277 360.323,8.760 360.210,9.280 C360.097,9.800 360.040,10.320 360.040,10.840 C360.040,12.067 360.513,12.680 361.460,12.680 C361.940,12.680 362.307,12.517 362.560,12.190 C362.813,11.863 363.020,11.420 363.180,10.860 L366.980,10.860 C366.607,12.393 365.973,13.513 365.080,14.220 C364.187,14.927 362.967,15.280 361.420,15.280 C359.833,15.280 358.567,14.893 357.620,14.120 C356.673,13.347 356.200,12.160 356.200,10.560 C356.200,8.693 356.763,7.210 357.890,6.110 C359.017,5.010 360.500,4.460 362.340,4.460 C363.873,4.460 365.093,4.817 366.000,5.530 C366.907,6.243 367.360,7.200 367.360,8.400 L367.360,8.580 L363.560,8.580 L363.560,8.460 ZM347.020,10.760 C347.007,10.853 347.000,10.947 347.000,11.040 C347.000,12.187 347.580,12.760 348.740,12.760 C349.460,12.760 349.947,12.493 350.200,11.960 L354.040,11.960 C353.347,14.187 351.513,15.300 348.540,15.300 C346.927,15.300 345.653,14.917 344.720,14.150 C343.787,13.383 343.320,12.180 343.320,10.540 C343.320,8.727 343.887,7.253 345.020,6.120 C346.153,4.987 347.633,4.420 349.460,4.420 C351.087,4.420 352.357,4.837 353.270,5.670 C354.183,6.503 354.640,7.660 354.640,9.140 C354.640,9.647 354.587,10.187 354.480,10.760 L347.020,10.760 ZM350.940,8.480 C350.940,8.027 350.800,7.663 350.520,7.390 C350.240,7.117 349.867,6.980 349.400,6.980 C348.907,6.980 348.477,7.130 348.110,7.430 C347.743,7.730 347.487,8.153 347.340,8.700 L350.940,8.700 L350.940,8.480 ZM337.040,15.000 L337.900,10.940 C336.700,11.340 335.600,11.540 334.600,11.540 C332.693,11.540 331.740,10.647 331.740,8.860 C331.740,8.447 331.800,7.967 331.920,7.420 L332.500,4.680 L336.440,4.680 L335.960,6.920 C335.893,7.280 335.860,7.553 335.860,7.740 C335.860,8.113 335.950,8.380 336.130,8.540 C336.310,8.700 336.587,8.780 336.960,8.780 C337.387,8.780 337.787,8.673 338.160,8.460 L338.960,4.680 L342.900,4.680 L340.700,15.000 L337.040,15.000 ZM328.750,13.110 C328.343,13.757 327.800,14.280 327.120,14.680 C326.440,15.080 325.673,15.280 324.820,15.280 C323.393,15.280 322.387,14.787 321.800,13.800 L320.840,18.340 L316.880,18.340 L319.760,4.680 L323.580,4.680 L323.360,5.760 C324.160,4.867 325.147,4.420 326.320,4.420 C327.427,4.420 328.317,4.810 328.990,5.590 C329.663,6.370 330.000,7.407 330.000,8.700 C330.000,9.487 329.893,10.257 329.680,11.010 C329.467,11.763 329.157,12.463 328.750,13.110 ZM325.650,7.940 C325.417,7.647 325.093,7.500 324.680,7.500 C323.907,7.500 323.343,7.810 322.990,8.430 C322.637,9.050 322.460,9.787 322.460,10.640 C322.460,11.187 322.590,11.610 322.850,11.910 C323.110,12.210 323.480,12.360 323.960,12.360 C324.640,12.360 325.150,12.013 325.490,11.320 C325.830,10.627 326.000,9.900 326.000,9.140 C326.000,8.633 325.883,8.233 325.650,7.940 ZM310.400,15.320 C308.840,15.320 307.590,14.937 306.650,14.170 C305.710,13.403 305.240,12.240 305.240,10.680 C305.240,8.827 305.803,7.320 306.930,6.160 C308.057,5.000 309.560,4.420 311.440,4.420 C312.973,4.420 314.217,4.807 315.170,5.580 C316.123,6.353 316.600,7.500 316.600,9.020 C316.600,10.887 316.037,12.403 314.910,13.570 C313.783,14.737 312.280,15.320 310.400,15.320 ZM312.340,7.630 C312.113,7.317 311.760,7.160 311.280,7.160 C310.893,7.160 310.553,7.290 310.260,7.550 C309.967,7.810 309.743,8.143 309.590,8.550 C309.437,8.957 309.323,9.357 309.250,9.750 C309.177,10.143 309.140,10.513 309.140,10.860 C309.140,11.993 309.607,12.560 310.540,12.560 C310.927,12.560 311.267,12.430 311.560,12.170 C311.853,11.910 312.077,11.577 312.230,11.170 C312.383,10.763 312.497,10.363 312.570,9.970 C312.643,9.577 312.680,9.207 312.680,8.860 C312.680,8.353 312.567,7.943 312.340,7.630 ZM302.640,9.420 C303.600,9.767 304.080,10.473 304.080,11.540 C304.080,12.527 303.713,13.353 302.980,14.020 C302.660,14.313 302.283,14.537 301.850,14.690 C301.417,14.843 301.037,14.933 300.710,14.960 C300.383,14.987 299.933,15.000 299.360,15.000 L292.420,15.000 L294.640,4.680 L300.960,4.680 C301.453,4.680 301.883,4.707 302.250,4.760 C302.617,4.813 302.987,4.917 303.360,5.070 C303.733,5.223 304.020,5.467 304.220,5.800 C304.420,6.133 304.520,6.560 304.520,7.080 C304.520,7.680 304.347,8.197 304.000,8.630 C303.653,9.063 303.200,9.327 302.640,9.420 ZM296.820,12.560 L298.360,12.560 C298.947,12.560 299.347,12.487 299.560,12.340 C299.853,12.127 300.000,11.840 300.000,11.480 C300.000,10.933 299.620,10.647 298.860,10.620 C298.807,10.620 298.647,10.620 298.380,10.620 L297.220,10.620 L296.820,12.560 ZM300.270,7.220 C300.117,7.113 299.970,7.053 299.830,7.040 C299.690,7.027 299.500,7.020 299.260,7.020 L298.000,7.020 L297.640,8.620 L299.180,8.620 C300.060,8.620 300.500,8.313 300.500,7.700 C300.500,7.487 300.423,7.327 300.270,7.220 ZM289.620,7.660 L288.060,15.000 L284.140,15.000 L285.700,7.660 L282.400,7.660 L283.040,4.680 L293.560,4.680 L292.920,7.660 L289.620,7.660 ZM268.640,15.000 L269.820,9.500 L269.760,9.500 L265.680,15.000 L261.640,15.000 L263.840,4.680 L267.620,4.680 L266.480,10.040 L266.540,10.040 L270.580,4.680 L274.620,4.680 L272.420,15.000 L268.640,15.000 ZM255.480,15.000 L256.320,11.060 L253.420,11.060 L252.580,15.000 L248.640,15.000 L250.840,4.680 L254.780,4.680 L254.060,8.080 L256.960,8.080 L257.680,4.680 L261.620,4.680 L259.420,15.000 L255.480,15.000 ZM240.020,10.760 C240.007,10.853 240.000,10.947 240.000,11.040 C240.000,12.187 240.580,12.760 241.740,12.760 C242.460,12.760 242.947,12.493 243.200,11.960 L247.040,11.960 C246.347,14.187 244.513,15.300 241.540,15.300 C239.927,15.300 238.653,14.917 237.720,14.150 C236.787,13.383 236.320,12.180 236.320,10.540 C236.320,8.727 236.887,7.253 238.020,6.120 C239.153,4.987 240.633,4.420 242.460,4.420 C244.087,4.420 245.357,4.837 246.270,5.670 C247.183,6.503 247.640,7.660 247.640,9.140 C247.640,9.647 247.587,10.187 247.480,10.760 L240.020,10.760 ZM243.940,8.480 C243.940,8.027 243.800,7.663 243.520,7.390 C243.240,7.117 242.867,6.980 242.400,6.980 C241.907,6.980 241.477,7.130 241.110,7.430 C240.743,7.730 240.487,8.153 240.340,8.700 L243.940,8.700 L243.940,8.480 ZM229.780,15.000 L231.260,8.540 L231.200,8.540 L227.700,15.000 L225.360,15.000 L224.620,8.540 L224.560,8.540 L223.280,15.000 L219.620,15.000 L221.820,4.680 L226.680,4.680 L227.360,10.700 L227.380,10.700 L230.600,4.680 L235.640,4.680 L233.440,15.000 L229.780,15.000 ZM211.020,10.760 C211.007,10.853 211.000,10.947 211.000,11.040 C211.000,12.187 211.580,12.760 212.740,12.760 C213.460,12.760 213.947,12.493 214.200,11.960 L218.040,11.960 C217.347,14.187 215.513,15.300 212.540,15.300 C210.927,15.300 209.653,14.917 208.720,14.150 C207.787,13.383 207.320,12.180 207.320,10.540 C207.320,8.727 207.887,7.253 209.020,6.120 C210.153,4.987 211.633,4.420 213.460,4.420 C215.087,4.420 216.357,4.837 217.270,5.670 C218.183,6.503 218.640,7.660 218.640,9.140 C218.640,9.647 218.587,10.187 218.480,10.760 L211.020,10.760 ZM214.940,8.480 C214.940,8.027 214.800,7.663 214.520,7.390 C214.240,7.117 213.867,6.980 213.400,6.980 C212.907,6.980 212.477,7.130 212.110,7.430 C211.743,7.730 211.487,8.153 211.340,8.700 L214.940,8.700 L214.940,8.480 ZM204.750,13.110 C204.343,13.757 203.800,14.280 203.120,14.680 C202.440,15.080 201.673,15.280 200.820,15.280 C199.393,15.280 198.387,14.787 197.800,13.800 L196.840,18.340 L192.880,18.340 L195.760,4.680 L199.580,4.680 L199.360,5.760 C200.160,4.867 201.147,4.420 202.320,4.420 C203.427,4.420 204.317,4.810 204.990,5.590 C205.663,6.370 206.000,7.407 206.000,8.700 C206.000,9.487 205.893,10.257 205.680,11.010 C205.467,11.763 205.157,12.463 204.750,13.110 ZM201.650,7.940 C201.417,7.647 201.093,7.500 200.680,7.500 C199.907,7.500 199.343,7.810 198.990,8.430 C198.637,9.050 198.460,9.787 198.460,10.640 C198.460,11.187 198.590,11.610 198.850,11.910 C199.110,12.210 199.480,12.360 199.960,12.360 C200.640,12.360 201.150,12.013 201.490,11.320 C201.830,10.627 202.000,9.900 202.000,9.140 C202.000,8.633 201.883,8.233 201.650,7.940 ZM191.640,9.420 C192.600,9.767 193.080,10.473 193.080,11.540 C193.080,12.527 192.713,13.353 191.980,14.020 C191.660,14.313 191.283,14.537 190.850,14.690 C190.417,14.843 190.037,14.933 189.710,14.960 C189.383,14.987 188.933,15.000 188.360,15.000 L181.420,15.000 L183.640,4.680 L189.960,4.680 C190.453,4.680 190.883,4.707 191.250,4.760 C191.617,4.813 191.987,4.917 192.360,5.070 C192.733,5.223 193.020,5.467 193.220,5.800 C193.420,6.133 193.520,6.560 193.520,7.080 C193.520,7.680 193.347,8.197 193.000,8.630 C192.653,9.063 192.200,9.327 191.640,9.420 ZM185.820,12.560 L187.360,12.560 C187.947,12.560 188.347,12.487 188.560,12.340 C188.853,12.127 189.000,11.840 189.000,11.480 C189.000,10.933 188.620,10.647 187.860,10.620 C187.807,10.620 187.647,10.620 187.380,10.620 L186.220,10.620 L185.820,12.560 ZM189.270,7.220 C189.117,7.113 188.970,7.053 188.830,7.040 C188.690,7.027 188.500,7.020 188.260,7.020 L187.000,7.020 L186.640,8.620 L188.180,8.620 C189.060,8.620 189.500,8.313 189.500,7.700 C189.500,7.487 189.423,7.327 189.270,7.220 ZM166.020,10.760 C166.007,10.853 166.000,10.947 166.000,11.040 C166.000,12.187 166.580,12.760 167.740,12.760 C168.460,12.760 168.947,12.493 169.200,11.960 L173.040,11.960 C172.347,14.187 170.513,15.300 167.540,15.300 C165.927,15.300 164.653,14.917 163.720,14.150 C162.787,13.383 162.320,12.180 162.320,10.540 C162.320,8.727 162.887,7.253 164.020,6.120 C165.153,4.987 166.633,4.420 168.460,4.420 C170.087,4.420 171.357,4.837 172.270,5.670 C173.183,6.503 173.640,7.660 173.640,9.140 C173.640,9.647 173.587,10.187 173.480,10.760 L166.020,10.760 ZM169.940,8.480 C169.940,8.027 169.800,7.663 169.520,7.390 C169.240,7.117 168.867,6.980 168.400,6.980 C167.907,6.980 167.477,7.130 167.110,7.430 C166.743,7.730 166.487,8.153 166.340,8.700 L169.940,8.700 L169.940,8.480 ZM143.620,15.000 L145.820,4.680 L149.680,4.680 L148.120,11.980 L150.460,11.980 L152.020,4.680 L155.860,4.680 L154.300,11.980 L156.640,11.980 L158.200,4.680 L162.060,4.680 L159.860,15.000 L143.620,15.000 ZM141.280,14.320 C140.573,14.773 139.527,15.000 138.140,15.000 L131.620,15.000 L133.820,4.680 L137.760,4.680 L137.080,7.900 L139.180,7.900 C140.367,7.900 141.297,8.133 141.970,8.600 C142.643,9.067 142.980,9.873 142.980,11.020 C142.980,11.700 142.827,12.333 142.520,12.920 C142.213,13.507 141.800,13.973 141.280,14.320 ZM138.620,10.510 C138.393,10.383 138.080,10.320 137.680,10.320 L136.560,10.320 L136.100,12.500 L137.320,12.500 C137.840,12.500 138.243,12.413 138.530,12.240 C138.817,12.067 138.960,11.740 138.960,11.260 C138.960,10.887 138.847,10.637 138.620,10.510 ZM125.220,15.000 L126.780,7.660 L124.800,7.660 C124.413,9.420 124.007,10.827 123.580,11.880 C123.073,13.080 122.493,13.933 121.840,14.440 C121.187,14.947 120.313,15.200 119.220,15.200 C119.047,15.200 118.820,15.177 118.540,15.130 C118.260,15.083 118.027,15.040 117.840,15.000 L117.540,14.920 L118.140,12.100 C118.540,12.193 118.827,12.240 119.000,12.240 C119.200,12.240 119.377,12.170 119.530,12.030 C119.683,11.890 119.823,11.670 119.950,11.370 C120.077,11.070 120.180,10.790 120.260,10.530 C120.340,10.270 120.433,9.927 120.540,9.500 C120.567,9.393 120.587,9.313 120.600,9.260 C120.813,8.460 121.160,6.933 121.640,4.680 L131.340,4.680 L129.140,15.000 L125.220,15.000 ZM112.400,15.320 C110.840,15.320 109.590,14.937 108.650,14.170 C107.710,13.403 107.240,12.240 107.240,10.680 C107.240,8.827 107.803,7.320 108.930,6.160 C110.057,5.000 111.560,4.420 113.440,4.420 C114.973,4.420 116.217,4.807 117.170,5.580 C118.123,6.353 118.600,7.500 118.600,9.020 C118.600,10.887 118.037,12.403 116.910,13.570 C115.783,14.737 114.280,15.320 112.400,15.320 ZM114.340,7.630 C114.113,7.317 113.760,7.160 113.280,7.160 C112.893,7.160 112.553,7.290 112.260,7.550 C111.967,7.810 111.743,8.143 111.590,8.550 C111.437,8.957 111.323,9.357 111.250,9.750 C111.177,10.143 111.140,10.513 111.140,10.860 C111.140,11.993 111.607,12.560 112.540,12.560 C112.927,12.560 113.267,12.430 113.560,12.170 C113.853,11.910 114.077,11.577 114.230,11.170 C114.383,10.763 114.497,10.363 114.570,9.970 C114.643,9.577 114.680,9.207 114.680,8.860 C114.680,8.353 114.567,7.943 114.340,7.630 ZM105.360,2.640 C105.107,2.867 104.690,3.073 104.110,3.260 C103.530,3.447 103.107,3.567 102.840,3.620 C102.573,3.673 102.067,3.760 101.320,3.880 C101.253,3.893 101.200,3.903 101.160,3.910 C101.120,3.917 101.073,3.923 101.020,3.930 C100.967,3.937 100.913,3.947 100.860,3.960 C98.993,4.267 97.853,5.147 97.440,6.600 L97.500,6.600 C98.380,5.320 99.693,4.680 101.440,4.680 C102.587,4.680 103.573,5.093 104.400,5.920 C105.227,6.747 105.640,7.813 105.640,9.120 C105.640,10.880 105.023,12.350 103.790,13.530 C102.557,14.710 101.060,15.300 99.300,15.300 C97.913,15.300 96.767,14.840 95.860,13.920 C94.953,13.000 94.500,11.860 94.500,10.500 C94.500,9.647 94.570,8.803 94.710,7.970 C94.850,7.137 95.090,6.263 95.430,5.350 C95.770,4.437 96.283,3.617 96.970,2.890 C97.657,2.163 98.487,1.620 99.460,1.260 C99.887,1.100 100.367,0.983 100.900,0.910 C101.433,0.837 101.873,0.757 102.220,0.670 C102.567,0.583 102.853,0.427 103.080,0.200 L106.720,0.200 C106.613,0.760 106.423,1.250 106.150,1.670 C105.877,2.090 105.613,2.413 105.360,2.640 ZM99.700,12.460 C100.193,12.460 100.597,12.260 100.910,11.860 C101.223,11.460 101.430,11.030 101.530,10.570 C101.630,10.110 101.680,9.633 101.680,9.140 C101.680,8.060 101.240,7.520 100.360,7.520 C99.987,7.520 99.663,7.627 99.390,7.840 C99.117,8.053 98.913,8.337 98.780,8.690 C98.647,9.043 98.550,9.393 98.490,9.740 C98.430,10.087 98.400,10.433 98.400,10.780 C98.400,11.900 98.833,12.460 99.700,12.460 ZM78.020,10.760 C78.007,10.853 78.000,10.947 78.000,11.040 C78.000,12.187 78.580,12.760 79.740,12.760 C80.460,12.760 80.947,12.493 81.200,11.960 L85.040,11.960 C84.347,14.187 82.513,15.300 79.540,15.300 C77.927,15.300 76.653,14.917 75.720,14.150 C74.787,13.383 74.320,12.180 74.320,10.540 C74.320,8.727 74.887,7.253 76.020,6.120 C77.153,4.987 78.633,4.420 80.460,4.420 C82.087,4.420 83.357,4.837 84.270,5.670 C85.183,6.503 85.640,7.660 85.640,9.140 C85.640,9.647 85.587,10.187 85.480,10.760 L78.020,10.760 ZM81.940,8.480 C81.940,8.027 81.800,7.663 81.520,7.390 C81.240,7.117 80.867,6.980 80.400,6.980 C79.907,6.980 79.477,7.130 79.110,7.430 C78.743,7.730 78.487,8.153 78.340,8.700 L81.940,8.700 L81.940,8.480 ZM70.620,7.660 L69.060,15.000 L65.140,15.000 L66.700,7.660 L63.400,7.660 L64.040,4.680 L74.560,4.680 L73.920,7.660 L70.620,7.660 ZM56.640,15.000 L57.820,9.500 L57.760,9.500 L53.680,15.000 L49.640,15.000 L51.840,4.680 L55.620,4.680 L54.480,10.040 L54.540,10.040 L58.580,4.680 L62.620,4.680 L60.420,15.000 L56.640,15.000 ZM43.220,15.000 L44.780,7.660 L42.800,7.660 C42.413,9.420 42.007,10.827 41.580,11.880 C41.073,13.080 40.493,13.933 39.840,14.440 C39.187,14.947 38.313,15.200 37.220,15.200 C37.047,15.200 36.820,15.177 36.540,15.130 C36.260,15.083 36.027,15.040 35.840,15.000 L35.540,14.920 L36.140,12.100 C36.540,12.193 36.827,12.240 37.000,12.240 C37.200,12.240 37.377,12.170 37.530,12.030 C37.683,11.890 37.823,11.670 37.950,11.370 C38.077,11.070 38.180,10.790 38.260,10.530 C38.340,10.270 38.433,9.927 38.540,9.500 C38.567,9.393 38.587,9.313 38.600,9.260 C38.813,8.460 39.160,6.933 39.640,4.680 L49.340,4.680 L47.140,15.000 L43.220,15.000 ZM29.020,10.760 C29.007,10.853 29.000,10.947 29.000,11.040 C29.000,12.187 29.580,12.760 30.740,12.760 C31.460,12.760 31.947,12.493 32.200,11.960 L36.040,11.960 C35.347,14.187 33.513,15.300 30.540,15.300 C28.927,15.300 27.653,14.917 26.720,14.150 C25.787,13.383 25.320,12.180 25.320,10.540 C25.320,8.727 25.887,7.253 27.020,6.120 C28.153,4.987 29.633,4.420 31.460,4.420 C33.087,4.420 34.357,4.837 35.270,5.670 C36.183,6.503 36.640,7.660 36.640,9.140 C36.640,9.647 36.587,10.187 36.480,10.760 L29.020,10.760 ZM32.940,8.480 C32.940,8.027 32.800,7.663 32.520,7.390 C32.240,7.117 31.867,6.980 31.400,6.980 C30.907,6.980 30.477,7.130 30.110,7.430 C29.743,7.730 29.487,8.153 29.340,8.700 L32.940,8.700 L32.940,8.480 ZM24.060,12.020 L22.840,17.740 L19.300,17.740 L19.880,15.000 L14.160,15.000 L13.580,17.740 L10.100,17.740 L11.320,12.020 L12.380,12.020 C13.553,10.713 14.527,8.267 15.300,4.680 L24.380,4.680 L22.820,12.020 L24.060,12.020 ZM18.080,7.540 L18.060,7.660 C17.967,8.207 17.740,8.950 17.380,9.890 C17.020,10.830 16.627,11.540 16.200,12.020 L19.020,12.020 L19.960,7.540 L18.080,7.540 ZM2.940,15.360 C2.380,15.360 1.827,15.310 1.280,15.210 C0.733,15.110 0.353,15.007 0.140,14.900 L0.880,11.480 C0.947,11.560 1.140,11.650 1.460,11.750 C1.780,11.850 2.093,11.900 2.400,11.900 C2.720,11.900 3.017,11.810 3.290,11.630 C3.563,11.450 3.740,11.193 3.820,10.860 C3.860,10.620 3.847,10.367 3.780,10.100 L1.220,0.760 L5.900,0.760 L6.340,3.900 C6.487,4.927 6.627,6.160 6.760,7.600 C7.147,6.720 7.573,5.820 8.040,4.900 L10.180,0.760 L15.140,0.760 L7.700,12.400 C6.447,14.373 4.860,15.360 2.940,15.360 Z"/>
<path fill-rule="evenodd"  fill="rgb(87, 87, 87)"
 d="M340.720,34.920 L340.000,38.260 C339.827,39.127 339.740,39.733 339.740,40.080 C339.740,40.453 339.780,40.760 339.860,41.000 L335.880,41.000 C335.853,40.893 335.840,40.773 335.840,40.640 C335.840,40.493 335.853,40.280 335.880,40.000 C335.133,40.893 334.033,41.340 332.580,41.340 C331.540,41.340 330.723,41.080 330.130,40.560 C329.537,40.040 329.240,39.327 329.240,38.420 C329.240,37.287 329.640,36.443 330.440,35.890 C331.240,35.337 332.413,34.993 333.960,34.860 C334.147,34.847 334.407,34.830 334.740,34.810 C335.073,34.790 335.313,34.773 335.460,34.760 C335.607,34.747 335.797,34.723 336.030,34.690 C336.263,34.657 336.430,34.613 336.530,34.560 C336.630,34.507 336.743,34.440 336.870,34.360 C336.997,34.280 337.080,34.177 337.120,34.050 C337.160,33.923 337.180,33.773 337.180,33.600 C337.180,33.040 336.747,32.760 335.880,32.760 C335.453,32.760 335.127,32.840 334.900,33.000 C334.673,33.160 334.493,33.440 334.360,33.840 L330.660,33.840 C330.793,33.147 331.027,32.563 331.360,32.090 C331.693,31.617 332.117,31.260 332.630,31.020 C333.143,30.780 333.670,30.613 334.210,30.520 C334.750,30.427 335.367,30.380 336.060,30.380 C339.340,30.380 340.980,31.287 340.980,33.100 C340.980,33.540 340.893,34.147 340.720,34.920 ZM336.010,36.650 C335.777,36.710 335.497,36.753 335.170,36.780 C334.843,36.807 334.620,36.833 334.500,36.860 C333.647,37.020 333.220,37.413 333.220,38.040 C333.220,38.680 333.607,39.000 334.380,39.000 C335.007,39.000 335.467,38.837 335.760,38.510 C336.053,38.183 336.287,37.687 336.460,37.020 L336.620,36.380 C336.447,36.500 336.243,36.590 336.010,36.650 ZM326.120,33.660 L324.560,41.000 L320.640,41.000 L322.200,33.660 L318.900,33.660 L319.540,30.680 L330.060,30.680 L329.420,33.660 L326.120,33.660 ZM311.900,41.320 C310.340,41.320 309.090,40.937 308.150,40.170 C307.210,39.403 306.740,38.240 306.740,36.680 C306.740,34.827 307.303,33.320 308.430,32.160 C309.557,31.000 311.060,30.420 312.940,30.420 C314.473,30.420 315.717,30.807 316.670,31.580 C317.623,32.353 318.100,33.500 318.100,35.020 C318.100,36.887 317.537,38.403 316.410,39.570 C315.283,40.737 313.780,41.320 311.900,41.320 ZM313.840,33.630 C313.613,33.317 313.260,33.160 312.780,33.160 C312.393,33.160 312.053,33.290 311.760,33.550 C311.467,33.810 311.243,34.143 311.090,34.550 C310.937,34.957 310.823,35.357 310.750,35.750 C310.677,36.143 310.640,36.513 310.640,36.860 C310.640,37.993 311.107,38.560 312.040,38.560 C312.427,38.560 312.767,38.430 313.060,38.170 C313.353,37.910 313.577,37.577 313.730,37.170 C313.883,36.763 313.997,36.363 314.070,35.970 C314.143,35.577 314.180,35.207 314.180,34.860 C314.180,34.353 314.067,33.943 313.840,33.630 ZM304.860,28.640 C304.607,28.867 304.190,29.073 303.610,29.260 C303.030,29.447 302.607,29.567 302.340,29.620 C302.073,29.673 301.567,29.760 300.820,29.880 C300.753,29.893 300.700,29.903 300.660,29.910 C300.620,29.917 300.573,29.923 300.520,29.930 C300.467,29.937 300.413,29.947 300.360,29.960 C298.493,30.267 297.353,31.147 296.940,32.600 L297.000,32.600 C297.880,31.320 299.193,30.680 300.940,30.680 C302.087,30.680 303.073,31.093 303.900,31.920 C304.727,32.747 305.140,33.813 305.140,35.120 C305.140,36.880 304.523,38.350 303.290,39.530 C302.057,40.710 300.560,41.300 298.800,41.300 C297.413,41.300 296.267,40.840 295.360,39.920 C294.453,39.000 294.000,37.860 294.000,36.500 C294.000,35.647 294.070,34.803 294.210,33.970 C294.350,33.137 294.590,32.263 294.930,31.350 C295.270,30.437 295.783,29.617 296.470,28.890 C297.157,28.163 297.987,27.620 298.960,27.260 C299.387,27.100 299.867,26.983 300.400,26.910 C300.933,26.837 301.373,26.757 301.720,26.670 C302.067,26.583 302.353,26.427 302.580,26.200 L306.220,26.200 C306.113,26.760 305.923,27.250 305.650,27.670 C305.377,28.090 305.113,28.413 304.860,28.640 ZM299.200,38.460 C299.693,38.460 300.097,38.260 300.410,37.860 C300.723,37.460 300.930,37.030 301.030,36.570 C301.130,36.110 301.180,35.633 301.180,35.140 C301.180,34.060 300.740,33.520 299.860,33.520 C299.487,33.520 299.163,33.627 298.890,33.840 C298.617,34.053 298.413,34.337 298.280,34.690 C298.147,35.043 298.050,35.393 297.990,35.740 C297.930,36.087 297.900,36.433 297.900,36.780 C297.900,37.900 298.333,38.460 299.200,38.460 ZM291.000,38.260 C290.827,39.127 290.740,39.733 290.740,40.080 C290.740,40.453 290.780,40.760 290.860,41.000 L286.880,41.000 C286.853,40.893 286.840,40.773 286.840,40.640 C286.840,40.493 286.853,40.280 286.880,40.000 C286.133,40.893 285.033,41.340 283.580,41.340 C282.540,41.340 281.723,41.080 281.130,40.560 C280.537,40.040 280.240,39.327 280.240,38.420 C280.240,37.287 280.640,36.443 281.440,35.890 C282.240,35.337 283.413,34.993 284.960,34.860 C285.147,34.847 285.407,34.830 285.740,34.810 C286.073,34.790 286.313,34.773 286.460,34.760 C286.607,34.747 286.797,34.723 287.030,34.690 C287.263,34.657 287.430,34.613 287.530,34.560 C287.630,34.507 287.743,34.440 287.870,34.360 C287.997,34.280 288.080,34.177 288.120,34.050 C288.160,33.923 288.180,33.773 288.180,33.600 C288.180,33.040 287.747,32.760 286.880,32.760 C286.453,32.760 286.127,32.840 285.900,33.000 C285.673,33.160 285.493,33.440 285.360,33.840 L281.660,33.840 C281.793,33.147 282.027,32.563 282.360,32.090 C282.693,31.617 283.117,31.260 283.630,31.020 C284.143,30.780 284.670,30.613 285.210,30.520 C285.750,30.427 286.367,30.380 287.060,30.380 C290.340,30.380 291.980,31.287 291.980,33.100 C291.980,33.540 291.893,34.147 291.720,34.920 L291.000,38.260 ZM287.010,36.650 C286.777,36.710 286.497,36.753 286.170,36.780 C285.843,36.807 285.620,36.833 285.500,36.860 C284.647,37.020 284.220,37.413 284.220,38.040 C284.220,38.680 284.607,39.000 285.380,39.000 C286.007,39.000 286.467,38.837 286.760,38.510 C287.053,38.183 287.287,37.687 287.460,37.020 L287.620,36.380 C287.447,36.500 287.243,36.590 287.010,36.650 ZM277.460,35.440 C277.953,35.573 278.337,35.830 278.610,36.210 C278.883,36.590 279.020,37.013 279.020,37.480 C279.020,38.800 278.507,39.767 277.480,40.380 C276.453,40.993 275.060,41.300 273.300,41.300 C272.647,41.300 272.047,41.250 271.500,41.150 C270.953,41.050 270.423,40.883 269.910,40.650 C269.397,40.417 268.993,40.070 268.700,39.610 C268.407,39.150 268.260,38.593 268.260,37.940 C268.260,37.913 268.263,37.860 268.270,37.780 C268.277,37.700 268.280,37.627 268.280,37.560 L271.920,37.560 L271.920,37.720 C271.920,38.467 272.393,38.840 273.340,38.840 C273.833,38.840 274.237,38.730 274.550,38.510 C274.863,38.290 275.020,37.973 275.020,37.560 C275.020,37.013 274.520,36.740 273.520,36.740 C273.187,36.740 272.940,36.747 272.780,36.760 L273.220,34.680 C273.540,34.680 273.800,34.670 274.000,34.650 C274.200,34.630 274.413,34.590 274.640,34.530 C274.867,34.470 275.037,34.367 275.150,34.220 C275.263,34.073 275.320,33.880 275.320,33.640 C275.320,33.387 275.227,33.183 275.040,33.030 C274.853,32.877 274.607,32.800 274.300,32.800 C273.527,32.800 273.040,33.127 272.840,33.780 L269.200,33.780 C269.520,31.540 271.340,30.420 274.660,30.420 C277.767,30.420 279.320,31.273 279.320,32.980 C279.320,33.540 279.153,34.040 278.820,34.480 C278.487,34.920 278.033,35.240 277.460,35.440 ZM259.000,38.260 C258.827,39.127 258.740,39.733 258.740,40.080 C258.740,40.453 258.780,40.760 258.860,41.000 L254.880,41.000 C254.853,40.893 254.840,40.773 254.840,40.640 C254.840,40.493 254.853,40.280 254.880,40.000 C254.133,40.893 253.033,41.340 251.580,41.340 C250.540,41.340 249.723,41.080 249.130,40.560 C248.537,40.040 248.240,39.327 248.240,38.420 C248.240,37.287 248.640,36.443 249.440,35.890 C250.240,35.337 251.413,34.993 252.960,34.860 C253.147,34.847 253.407,34.830 253.740,34.810 C254.073,34.790 254.313,34.773 254.460,34.760 C254.607,34.747 254.797,34.723 255.030,34.690 C255.263,34.657 255.430,34.613 255.530,34.560 C255.630,34.507 255.743,34.440 255.870,34.360 C255.997,34.280 256.080,34.177 256.120,34.050 C256.160,33.923 256.180,33.773 256.180,33.600 C256.180,33.040 255.747,32.760 254.880,32.760 C254.453,32.760 254.127,32.840 253.900,33.000 C253.673,33.160 253.493,33.440 253.360,33.840 L249.660,33.840 C249.793,33.147 250.027,32.563 250.360,32.090 C250.693,31.617 251.117,31.260 251.630,31.020 C252.143,30.780 252.670,30.613 253.210,30.520 C253.750,30.427 254.367,30.380 255.060,30.380 C258.340,30.380 259.980,31.287 259.980,33.100 C259.980,33.540 259.893,34.147 259.720,34.920 L259.000,38.260 ZM255.010,36.650 C254.777,36.710 254.497,36.753 254.170,36.780 C253.843,36.807 253.620,36.833 253.500,36.860 C252.647,37.020 252.220,37.413 252.220,38.040 C252.220,38.680 252.607,39.000 253.380,39.000 C254.007,39.000 254.467,38.837 254.760,38.510 C255.053,38.183 255.287,37.687 255.460,37.020 L255.620,36.380 C255.447,36.500 255.243,36.590 255.010,36.650 ZM230.120,41.000 L232.320,30.680 L236.180,30.680 L234.620,37.980 L236.960,37.980 L238.520,30.680 L242.360,30.680 L240.800,37.980 L243.140,37.980 L244.700,30.680 L248.560,30.680 L246.360,41.000 L230.120,41.000 ZM228.000,38.260 C227.827,39.127 227.740,39.733 227.740,40.080 C227.740,40.453 227.780,40.760 227.860,41.000 L223.880,41.000 C223.853,40.893 223.840,40.773 223.840,40.640 C223.840,40.493 223.853,40.280 223.880,40.000 C223.133,40.893 222.033,41.340 220.580,41.340 C219.540,41.340 218.723,41.080 218.130,40.560 C217.537,40.040 217.240,39.327 217.240,38.420 C217.240,37.287 217.640,36.443 218.440,35.890 C219.240,35.337 220.413,34.993 221.960,34.860 C222.147,34.847 222.407,34.830 222.740,34.810 C223.073,34.790 223.313,34.773 223.460,34.760 C223.607,34.747 223.797,34.723 224.030,34.690 C224.263,34.657 224.430,34.613 224.530,34.560 C224.630,34.507 224.743,34.440 224.870,34.360 C224.997,34.280 225.080,34.177 225.120,34.050 C225.160,33.923 225.180,33.773 225.180,33.600 C225.180,33.040 224.747,32.760 223.880,32.760 C223.453,32.760 223.127,32.840 222.900,33.000 C222.673,33.160 222.493,33.440 222.360,33.840 L218.660,33.840 C218.793,33.147 219.027,32.563 219.360,32.090 C219.693,31.617 220.117,31.260 220.630,31.020 C221.143,30.780 221.670,30.613 222.210,30.520 C222.750,30.427 223.367,30.380 224.060,30.380 C227.340,30.380 228.980,31.287 228.980,33.100 C228.980,33.540 228.893,34.147 228.720,34.920 L228.000,38.260 ZM224.010,36.650 C223.777,36.710 223.497,36.753 223.170,36.780 C222.843,36.807 222.620,36.833 222.500,36.860 C221.647,37.020 221.220,37.413 221.220,38.040 C221.220,38.680 221.607,39.000 222.380,39.000 C223.007,39.000 223.467,38.837 223.760,38.510 C224.053,38.183 224.287,37.687 224.460,37.020 L224.620,36.380 C224.447,36.500 224.243,36.590 224.010,36.650 ZM210.980,41.000 L211.820,37.060 L208.920,37.060 L208.080,41.000 L204.140,41.000 L206.340,30.680 L210.280,30.680 L209.560,34.080 L212.460,34.080 L213.180,30.680 L217.120,30.680 L214.920,41.000 L210.980,41.000 ZM186.840,37.260 L187.500,34.120 L197.480,34.120 L196.840,37.260 L186.840,37.260 ZM171.520,36.760 C171.507,36.853 171.500,36.947 171.500,37.040 C171.500,38.187 172.080,38.760 173.240,38.760 C173.960,38.760 174.447,38.493 174.700,37.960 L178.540,37.960 C177.847,40.187 176.013,41.300 173.040,41.300 C171.427,41.300 170.153,40.917 169.220,40.150 C168.287,39.383 167.820,38.180 167.820,36.540 C167.820,34.727 168.387,33.253 169.520,32.120 C170.653,30.987 172.133,30.420 173.960,30.420 C175.587,30.420 176.857,30.837 177.770,31.670 C178.683,32.503 179.140,33.660 179.140,35.140 C179.140,35.647 179.087,36.187 178.980,36.760 L171.520,36.760 ZM175.440,34.480 C175.440,34.027 175.300,33.663 175.020,33.390 C174.740,33.117 174.367,32.980 173.900,32.980 C173.407,32.980 172.977,33.130 172.610,33.430 C172.243,33.730 171.987,34.153 171.840,34.700 L175.440,34.700 L175.440,34.480 ZM159.900,41.320 C158.340,41.320 157.090,40.937 156.150,40.170 C155.210,39.403 154.740,38.240 154.740,36.680 C154.740,34.827 155.303,33.320 156.430,32.160 C157.557,31.000 159.060,30.420 160.940,30.420 C162.473,30.420 163.717,30.807 164.670,31.580 C165.623,32.353 166.100,33.500 166.100,35.020 C166.100,36.887 165.537,38.403 164.410,39.570 C163.283,40.737 161.780,41.320 159.900,41.320 ZM161.840,33.630 C161.613,33.317 161.260,33.160 160.780,33.160 C160.393,33.160 160.053,33.290 159.760,33.550 C159.467,33.810 159.243,34.143 159.090,34.550 C158.937,34.957 158.823,35.357 158.750,35.750 C158.677,36.143 158.640,36.513 158.640,36.860 C158.640,37.993 159.107,38.560 160.040,38.560 C160.427,38.560 160.767,38.430 161.060,38.170 C161.353,37.910 161.577,37.577 161.730,37.170 C161.883,36.763 161.997,36.363 162.070,35.970 C162.143,35.577 162.180,35.207 162.180,34.860 C162.180,34.353 162.067,33.943 161.840,33.630 ZM147.980,41.000 L148.820,37.060 L145.920,37.060 L145.080,41.000 L141.140,41.000 L143.340,30.680 L147.280,30.680 L146.560,34.080 L149.460,34.080 L150.180,30.680 L154.120,30.680 L151.920,41.000 L147.980,41.000 ZM138.780,40.320 C138.073,40.773 137.027,41.000 135.640,41.000 L129.120,41.000 L131.320,30.680 L135.260,30.680 L134.580,33.900 L136.680,33.900 C137.867,33.900 138.797,34.133 139.470,34.600 C140.143,35.067 140.480,35.873 140.480,37.020 C140.480,37.700 140.327,38.333 140.020,38.920 C139.713,39.507 139.300,39.973 138.780,40.320 ZM136.120,36.510 C135.893,36.383 135.580,36.320 135.180,36.320 L134.060,36.320 L133.600,38.500 L134.820,38.500 C135.340,38.500 135.743,38.413 136.030,38.240 C136.317,38.067 136.460,37.740 136.460,37.260 C136.460,36.887 136.347,36.637 136.120,36.510 ZM122.720,41.000 L124.280,33.660 L122.300,33.660 C121.913,35.420 121.507,36.827 121.080,37.880 C120.573,39.080 119.993,39.933 119.340,40.440 C118.687,40.947 117.813,41.200 116.720,41.200 C116.547,41.200 116.320,41.177 116.040,41.130 C115.760,41.083 115.527,41.040 115.340,41.000 L115.040,40.920 L115.640,38.100 C116.040,38.193 116.327,38.240 116.500,38.240 C116.700,38.240 116.877,38.170 117.030,38.030 C117.183,37.890 117.323,37.670 117.450,37.370 C117.577,37.070 117.680,36.790 117.760,36.530 C117.840,36.270 117.933,35.927 118.040,35.500 C118.067,35.393 118.087,35.313 118.100,35.260 C118.313,34.460 118.660,32.933 119.140,30.680 L128.840,30.680 L126.640,41.000 L122.720,41.000 ZM114.000,38.260 C113.827,39.127 113.740,39.733 113.740,40.080 C113.740,40.453 113.780,40.760 113.860,41.000 L109.880,41.000 C109.853,40.893 109.840,40.773 109.840,40.640 C109.840,40.493 109.853,40.280 109.880,40.000 C109.133,40.893 108.033,41.340 106.580,41.340 C105.540,41.340 104.723,41.080 104.130,40.560 C103.537,40.040 103.240,39.327 103.240,38.420 C103.240,37.287 103.640,36.443 104.440,35.890 C105.240,35.337 106.413,34.993 107.960,34.860 C108.147,34.847 108.407,34.830 108.740,34.810 C109.073,34.790 109.313,34.773 109.460,34.760 C109.607,34.747 109.797,34.723 110.030,34.690 C110.263,34.657 110.430,34.613 110.530,34.560 C110.630,34.507 110.743,34.440 110.870,34.360 C110.997,34.280 111.080,34.177 111.120,34.050 C111.160,33.923 111.180,33.773 111.180,33.600 C111.180,33.040 110.747,32.760 109.880,32.760 C109.453,32.760 109.127,32.840 108.900,33.000 C108.673,33.160 108.493,33.440 108.360,33.840 L104.660,33.840 C104.793,33.147 105.027,32.563 105.360,32.090 C105.693,31.617 106.117,31.260 106.630,31.020 C107.143,30.780 107.670,30.613 108.210,30.520 C108.750,30.427 109.367,30.380 110.060,30.380 C113.340,30.380 114.980,31.287 114.980,33.100 C114.980,33.540 114.893,34.147 114.720,34.920 L114.000,38.260 ZM110.010,36.650 C109.777,36.710 109.497,36.753 109.170,36.780 C108.843,36.807 108.620,36.833 108.500,36.860 C107.647,37.020 107.220,37.413 107.220,38.040 C107.220,38.680 107.607,39.000 108.380,39.000 C109.007,39.000 109.467,38.837 109.760,38.510 C110.053,38.183 110.287,37.687 110.460,37.020 L110.620,36.380 C110.447,36.500 110.243,36.590 110.010,36.650 ZM100.120,33.660 L98.560,41.000 L94.640,41.000 L96.200,33.660 L92.900,33.660 L93.540,30.680 L104.060,30.680 L103.420,33.660 L100.120,33.660 ZM89.060,34.460 C89.060,34.047 88.943,33.727 88.710,33.500 C88.477,33.273 88.147,33.160 87.720,33.160 C87.200,33.160 86.763,33.383 86.410,33.830 C86.057,34.277 85.823,34.760 85.710,35.280 C85.597,35.800 85.540,36.320 85.540,36.840 C85.540,38.067 86.013,38.680 86.960,38.680 C87.440,38.680 87.807,38.517 88.060,38.190 C88.313,37.863 88.520,37.420 88.680,36.860 L92.480,36.860 C92.107,38.393 91.473,39.513 90.580,40.220 C89.687,40.927 88.467,41.280 86.920,41.280 C85.333,41.280 84.067,40.893 83.120,40.120 C82.173,39.347 81.700,38.160 81.700,36.560 C81.700,34.693 82.263,33.210 83.390,32.110 C84.517,31.010 86.000,30.460 87.840,30.460 C89.373,30.460 90.593,30.817 91.500,31.530 C92.407,32.243 92.860,33.200 92.860,34.400 L92.860,34.580 L89.060,34.580 L89.060,34.460 ZM77.020,40.120 C75.780,40.933 74.333,41.340 72.680,41.340 C70.653,41.340 69.073,40.787 67.940,39.680 C66.807,38.573 66.240,36.993 66.240,34.940 C66.240,32.500 66.977,30.467 68.450,28.840 C69.923,27.213 71.867,26.400 74.280,26.400 C76.227,26.400 77.787,26.933 78.960,28.000 C80.133,29.067 80.720,30.567 80.720,32.500 C80.720,34.127 80.413,35.600 79.800,36.920 C79.187,38.240 78.260,39.307 77.020,40.120 ZM75.780,30.640 C75.420,30.133 74.853,29.880 74.080,29.880 C73.480,29.880 72.943,30.053 72.470,30.400 C71.997,30.747 71.630,31.193 71.370,31.740 C71.110,32.287 70.913,32.853 70.780,33.440 C70.647,34.027 70.580,34.593 70.580,35.140 C70.580,36.020 70.790,36.697 71.210,37.170 C71.630,37.643 72.220,37.880 72.980,37.880 C73.713,37.880 74.347,37.560 74.880,36.920 C75.413,36.280 75.787,35.577 76.000,34.810 C76.213,34.043 76.320,33.313 76.320,32.620 C76.320,31.807 76.140,31.147 75.780,30.640 Z"/>
</svg>